<svg xmlns="http://www.w3.org/2000/svg" viewBox="0 0 750 500"><g id="freepik--background-complete--inject-20"><rect x="41.62" y="70.72" width="147.57" height="132.02" style="fill:#fafafa"></rect><path d="M189.19,202.74s0-.85,0-2.45,0-4,0-7.08c0-6.2-.05-15.26-.09-26.8,0-23.06-.1-56-.17-95.69l.34.33-147.56.06h0l.4-.39c0,48,0,93.22-.05,132l-.35-.35,106.73.17,30.1.1,8,0,2.06,0c.46,0,.71,0,.71,0l-.67,0-2,0-7.9,0-30,.09-106.95.17h-.35v-.34c0-38.8,0-84,0-132v-.4h.4l147.56.06h.33v.34c-.07,39.75-.13,72.79-.17,95.9,0,11.51-.07,20.55-.09,26.73,0,3.06,0,5.4,0,7S189.19,202.74,189.19,202.74Z" style="fill:#e0e0e0"></path><path d="M98.2,94.17c0,.22-7.76.4-17.34.4s-17.35-.18-17.35-.4,7.76-.39,17.35-.39S98.2,94,98.2,94.17Z" style="fill:#e0e0e0"></path><path d="M160.73,104.09c0,.21-21.34.39-47.66.39s-47.65-.18-47.65-.39,21.33-.4,47.65-.4S160.73,103.87,160.73,104.09Z" style="fill:#e0e0e0"></path><rect x="63.76" y="120.88" width="6.22" height="6.22" style="fill:#e0e0e0"></rect><rect x="79.07" y="120.88" width="6.22" height="6.22" style="fill:#e0e0e0"></rect><rect x="94.65" y="120.59" width="6.22" height="6.22" style="fill:#e0e0e0"></rect><rect x="109.67" y="120.88" width="6.22" height="6.22" style="fill:#e0e0e0"></rect><rect x="124.98" y="120.88" width="6.22" height="6.22" style="fill:#e0e0e0"></rect><rect x="140.28" y="120.88" width="6.22" height="6.22" style="fill:#e0e0e0"></rect><rect x="155.58" y="120.88" width="6.22" height="6.22" style="fill:#ebebeb"></rect><rect x="63.76" y="134.09" width="6.22" height="6.22" style="fill:#ebebeb"></rect><rect x="79.07" y="134.09" width="6.22" height="6.22" style="fill:#e0e0e0"></rect><rect x="94.37" y="134.09" width="6.22" height="6.22" style="fill:#ebebeb"></rect><rect x="109.67" y="134.09" width="6.22" height="6.22" style="fill:#e0e0e0"></rect><rect x="124.98" y="134.09" width="6.22" height="6.22" style="fill:#e0e0e0"></rect><rect x="140.56" y="133.81" width="6.22" height="6.22" style="fill:#e0e0e0"></rect><rect x="155.58" y="134.09" width="6.22" height="6.22" style="fill:#e0e0e0"></rect><rect x="63.76" y="147.31" width="6.22" height="6.22" style="fill:#e0e0e0"></rect><rect x="79.35" y="147.03" width="6.22" height="6.22" style="fill:#e0e0e0"></rect><rect x="94.37" y="147.31" width="6.22" height="6.22" style="fill:#e0e0e0"></rect><rect x="109.67" y="147.31" width="6.22" height="6.22" style="fill:#ebebeb"></rect><rect x="124.98" y="147.31" width="6.22" height="6.22" style="fill:#e0e0e0"></rect><rect x="140.28" y="147.31" width="6.22" height="6.22" style="fill:#e0e0e0"></rect><rect x="155.58" y="147.31" width="6.22" height="6.22" style="fill:#e0e0e0"></rect><rect x="63.76" y="160.53" width="6.22" height="6.22" style="fill:#e0e0e0"></rect><rect x="79.07" y="160.53" width="6.22" height="6.22" style="fill:#e0e0e0"></rect><rect x="94.37" y="160.53" width="6.22" height="6.22" style="fill:#e0e0e0"></rect><rect x="109.95" y="160.24" width="6.22" height="6.22" style="fill:#e0e0e0"></rect><rect x="124.98" y="160.53" width="6.22" height="6.22" style="fill:#e0e0e0"></rect><rect x="140.28" y="160.53" width="6.22" height="6.22" style="fill:#ebebeb"></rect><rect x="155.58" y="160.53" width="6.22" height="6.22" style="fill:#e0e0e0"></rect><rect x="63.76" y="173.74" width="6.22" height="6.22" style="fill:#e0e0e0"></rect><rect x="79.07" y="173.74" width="6.22" height="6.22" style="fill:#ebebeb"></rect><rect x="94.37" y="173.74" width="6.22" height="6.22" style="fill:#e0e0e0"></rect><rect x="109.67" y="173.74" width="6.22" height="6.22" style="fill:#e0e0e0"></rect><rect x="124.98" y="173.74" width="6.22" height="6.22" style="fill:#e0e0e0"></rect><rect x="140.56" y="173.46" width="6.22" height="6.22" style="fill:#e0e0e0"></rect><rect x="155.58" y="173.74" width="6.22" height="6.22" style="fill:#e0e0e0"></rect><rect x="713.73" y="82.34" width="7.11" height="152.89" style="fill:#e0e0e0"></rect><rect x="610.58" y="83.52" width="102.07" height="151.92" rx="0.1" style="fill:#f5f5f5"></rect><path d="M713.73,236.62H609.5a.1.1,0,0,1-.11-.1V82.44a.11.11,0,0,1,.11-.1H713.73a.11.11,0,0,1,.1.1V236.52A.1.1,0,0,1,713.73,236.62Zm-101.87-2.36h99.5a.1.1,0,0,0,.1-.1V84.81a.09.09,0,0,0-.1-.1h-99.5a.1.1,0,0,0-.1.1V234.16A.11.11,0,0,0,611.86,234.26Z" style="fill:#ebebeb"></path><rect x="620.85" y="92.9" width="81.69" height="133.07" rx="0.1" style="fill:#fff"></rect><rect x="638.68" y="130.62" width="45.87" height="53.76" rx="0.06" style="fill:#ebebeb"></rect><path d="M680.92,177.81c.06.17-2.21,1.16-6.52.66a15.89,15.89,0,0,1-7.32-2.93,14.9,14.9,0,0,1-5.69-8.95,12.88,12.88,0,0,1,4.36-12.23,11.45,11.45,0,0,1,3.29-1.93,8.78,8.78,0,0,1,4.13-.48,7.34,7.34,0,0,1,4.13,1.81,5.37,5.37,0,0,1,1.62,4.8,7.84,7.84,0,0,1-2.26,4.13,14.59,14.59,0,0,1-3.46,2.54,18.83,18.83,0,0,1-8.24,2.36,16.39,16.39,0,0,1-8.79-2,15.94,15.94,0,0,1-6.46-6.7,13.61,13.61,0,0,1-1.16-9.39,14,14,0,0,1,4.94-7.73,12.12,12.12,0,0,1,4.15-2.09,10.23,10.23,0,0,1,4.67-.15,7.59,7.59,0,0,1,4.24,2.39,7,7,0,0,1,1.66,4.53,8.64,8.64,0,0,1-1.11,4.31,11.59,11.59,0,0,1-2.61,3.15,17.66,17.66,0,0,1-6.5,3.45,16.66,16.66,0,0,1-6.84.53,14,14,0,0,1-5.95-2.28,12.9,12.9,0,0,1-5.68-9,10.88,10.88,0,0,1,2.11-7.72,9.25,9.25,0,0,1,3.89-3.11c1.07-.41,1.68-.39,1.71-.29s-.48.38-1.35,1a10.11,10.11,0,0,0-3,3.26,9.62,9.62,0,0,0-1.24,6.59,10.76,10.76,0,0,0,5,7.07,12.46,12.46,0,0,0,10.42,1,14.68,14.68,0,0,0,5.22-3,6.4,6.4,0,0,0,2.43-4.89,3.5,3.5,0,0,0-3.13-3.47,6.94,6.94,0,0,0-3,.14,8.64,8.64,0,0,0-2.83,1.48,10.38,10.38,0,0,0-3.57,5.69,10,10,0,0,0,.87,6.82,12.4,12.4,0,0,0,4.94,5.13,12.84,12.84,0,0,0,6.79,1.58,15.54,15.54,0,0,0,6.68-1.83,11.26,11.26,0,0,0,2.66-1.88,4.46,4.46,0,0,0,1.35-2.2,1.88,1.88,0,0,0-.54-1.77,4,4,0,0,0-2.21-1,5.66,5.66,0,0,0-2.6.22,8.39,8.39,0,0,0-2.42,1.33,10.14,10.14,0,0,0-3.7,9.36,13,13,0,0,0,4.37,7.74,15.36,15.36,0,0,0,6.29,3.13C678.56,177.93,680.89,177.48,680.92,177.81Z" style="fill:#e0e0e0"></path><rect x="132.96" y="287.3" width="48.65" height="12.87" style="fill:#f5f5f5"></rect><rect x="246.45" y="25.05" width="48.65" height="12.87" style="fill:#f5f5f5"></rect><path d="M274.53,51.48s0-.09,0-.24l0-.66c0-.6,0-1.45,0-2.53,0-2.22,0-5.42-.08-9.44l.15.15-48.65.09.25-.24h0v6.52c0,2.14,0,4.26,0,6.33l-.24-.25,34.67.11,10.23.07,2.77,0h.73l.25,0h-.22l-.7,0-2.71,0-10.18.07-34.84.11h-.24v-.24c0-2.07,0-4.19,0-6.33V38.63h0l.25-.25,48.65.09h.15v.15c0,4.06-.06,7.29-.08,9.53,0,1.07,0,1.9,0,2.5,0,.26,0,.47,0,.63A.85.85,0,0,1,274.53,51.48Z" style="fill:#e0e0e0"></path><path d="M698.52,303.17a2.07,2.07,0,0,1,0-.23l0-.66c0-.61,0-1.45,0-2.54,0-2.22,0-5.41-.08-9.44l.15.15-48.65.1.25-.25h0v6.52q0,3.23,0,6.33l-.24-.24,34.67.11,10.23.07,2.77,0,.73,0h.25s-.07,0-.22,0h-.7l-2.71,0-10.18.06-34.84.11h-.24v-.25c0-2.07,0-4.18,0-6.33v-6.52h0l.25-.25,48.65.1h.15v.15c0,4.07-.06,7.29-.08,9.53,0,1.07,0,1.91,0,2.5V303C698.53,303.11,698.53,303.18,698.52,303.17Z" style="fill:#e0e0e0"></path><path d="M705.12,290.3a1.35,1.35,0,0,1,0-.24c0-.19,0-.41,0-.69,0-.63,0-1.49,0-2.58,0-2.25-.06-5.44-.1-9.36l.18.18-29.23.07c-.22.22.3-.3.24-.25h0v6.61c0,2.15,0,4.24,0,6.24l-.23-.23,20.91.11,6.09.06,1.64,0,.59,0a3.28,3.28,0,0,1-.53,0l-1.6,0-6,.06-21.07.12h-.24v-.24c0-2,0-4.09,0-6.24v-6.61h0l.25-.25,29.23.07h.18v.18c0,4-.08,7.19-.1,9.47,0,1.07,0,1.92,0,2.54S705.13,290.31,705.12,290.3Z" style="fill:#e0e0e0"></path><path d="M452.45,383a2.07,2.07,0,0,1,0-.23l0-.66c0-.61,0-1.45,0-2.54,0-2.22,0-5.41-.08-9.44l.15.15-48.65.1.25-.25h0v3.27c0,1.09,0,2.18,0,3.25V383l-.24-.24,34.67.11,10.23.07,2.77,0,.72,0h.26s-.07,0-.22,0h-.7l-2.71,0-10.18.07-34.84.11h-.24V383q0-3.1,0-6.33V370.1h0l.25-.25,48.65.1h.15v.15c0,4.07-.06,7.29-.08,9.53,0,1.07,0,1.91,0,2.5v.64C452.46,382.89,452.46,383,452.45,383Z" style="fill:#e0e0e0"></path><path d="M459.05,370.08a.77.77,0,0,1,0-.25c0-.18,0-.4,0-.68l-.05-2.58c0-2.25,0-5.44-.09-9.36l.18.18-29.23.07c-.23.22.3-.31.24-.25h0v6.61c0,2.15,0,4.24,0,6.24l-.23-.24,20.91.12,6.09.06,1.64,0,.59,0a3.28,3.28,0,0,1-.53,0l-1.6,0-6,.06-21.07.12h-.24v-.24c0-2,0-4.09,0-6.24v-6.61h0l.25-.25,29.23.07h.18v.18c0,4-.08,7.19-.1,9.47,0,1.07,0,1.92,0,2.54S459.06,370.09,459.05,370.08Z" style="fill:#e0e0e0"></path><rect x="545.35" y="38.38" width="48.65" height="12.87" style="fill:#f5f5f5"></rect></g><g id="freepik--Line--inject-20"><path d="M731.1,450.75c0,.14-159.73.26-356.72.26s-356.75-.12-356.75-.26,159.69-.26,356.75-.26S731.1,450.6,731.1,450.75Z" style="fill:#263238"></path></g><g id="freepik--Board--inject-20"><rect x="270.58" y="79.6" width="315.9" height="261.5" style="fill:#fff"></rect><path d="M586.48,341.1c0-1.83-.09-103.91-.22-261.5l.22.22-315.87,0h0l.26-.26c0,94.66,0,184,0,261.5l-.23-.24,315.9.24-315.9.23h-.23v-.23c0-77.5,0-166.84,0-261.5v-.26h.29l315.87,0h.22v.22C586.57,237.19,586.48,339.27,586.48,341.1Z" style="fill:#263238"></path><path d="M550.17,150.2c0,.14-56.64.26-126.48.26s-126.48-.12-126.48-.26,56.62-.26,126.48-.26S550.17,150.06,550.17,150.2Z" style="fill:#e0e0e0"></path><path d="M550.17,178.13c0,.15-56.64.26-126.48.26s-126.48-.11-126.48-.26,56.62-.26,126.48-.26S550.17,178,550.17,178.13Z" style="fill:#e0e0e0"></path><path d="M550.17,206.06c0,.15-56.64.26-126.48.26s-126.48-.11-126.48-.26,56.62-.26,126.48-.26S550.17,205.92,550.17,206.06Z" style="fill:#e0e0e0"></path><path d="M550.17,234c0,.14-56.64.26-126.48.26s-126.48-.12-126.48-.26,56.62-.26,126.48-.26S550.17,233.85,550.17,234Z" style="fill:#e0e0e0"></path><path d="M550.17,261.93c0,.14-56.64.26-126.48.26s-126.48-.12-126.48-.26,56.62-.26,126.48-.26S550.17,261.78,550.17,261.93Z" style="fill:#e0e0e0"></path><path d="M550.17,289.86c0,.14-56.64.26-126.48.26s-126.48-.12-126.48-.26,56.62-.26,126.48-.26S550.17,289.72,550.17,289.86Z" style="fill:#e0e0e0"></path><rect x="452.53" y="236.39" width="25.2" height="81.14" style="fill:#455a64"></rect><rect x="500.12" y="209.58" width="25.2" height="107.95" style="fill:#455a64"></rect><rect x="319.87" y="279.55" width="25.2" height="37.98" style="fill:#455a64"></rect><rect x="361.56" y="268.22" width="25.2" height="49.31" style="fill:#455a64"></rect><rect x="404.77" y="253.87" width="25.2" height="63.66" style="fill:#455a64"></rect><rect x="260.91" y="74.82" width="335.35" height="19.27" rx="8.71" style="fill:#263238"></rect><path d="M552.47,317.53l-1.16,0-3.41,0-13.08.05-48.1.08L328,317.79H296.38v-.26c0-54.64.06-102.92.08-137.54,0-17.31.06-31.2.08-40.77,0-4.78,0-8.48,0-11,0-1.25,0-2.2,0-2.85s0-1,0-1,0,.33,0,1,0,1.6,0,2.85c0,2.51,0,6.21.05,11,0,9.57,0,23.46.08,40.77,0,34.62.05,82.9.08,137.54l-.25-.26H328l158.72.08,48.1.08,13.08.05,3.41,0Z" style="fill:#263238"></path><path d="M464.32,230s-.13.14-.4.39l-1.22,1.13L458,235.82c-4.13,3.72-10.09,9.09-17.45,15.74l-58,52-.19.16-.17-.17L380,301.34l-28.52-29.21h.33l-39.64,33.74-11.4,9.65-3.05,2.55-.79.65-.28.21a2.65,2.65,0,0,1,.26-.24l.76-.68,3-2.61,11.3-9.75,39.53-33.88.17-.15.16.16L380.36,301l2.18,2.23h-.36l58.1-51.91,17.57-15.62,4.78-4.22,1.26-1.09C464.17,230.12,464.32,230,464.32,230Z" style="fill:#407BFF"></path><path d="M500.91,204.28l-30.37-12.11c-9.74.86-12.72,11.34-10.83,18a11,11,0,0,0-11.34,17.64A10.29,10.29,0,0,0,441.83,241c2.06,5.13,9,7.63,13.82,5,3.22-1.73,5.38-5.19,8.83-6.38,3.24-1.11,6.75,0,10.16.35,8.47.77,16.89-4.07,21.57-11.17S502.15,212.69,500.91,204.28Z" style="fill:#ebebeb"></path><path d="M481.47,196.77a24.72,24.72,0,0,0-7.52,6.16,2.22,2.22,0,0,0,2.28,3.55h0a91.26,91.26,0,0,0-7.53,9.34,2.74,2.74,0,0,0,2.93,4.23,41.84,41.84,0,0,0,24-17.09Z" style="fill:#407BFF"></path><g style="opacity:0.30000000000000004"><path d="M480.78,200.75a4.26,4.26,0,0,0-1.35,1,1.43,1.43,0,0,0-.23,1.56c.4.72,1.54.8,1.91,1.55s-.34,1.66-1,2.24L478,208.93c-.52.45-1.09,1.07-.89,1.73s1.2.86,2,.77a10.91,10.91,0,0,0,8.35-5.78Z"></path></g><path d="M529,188.54s0,.1,0,.21a41.17,41.17,0,0,1-9.32,34.37l-5.11,5.93-4.73-18.33Z" style="fill:#407BFF"></path><path d="M529,188.54l-.09.12-.28.32-1,1.23-3.93,4.61c-3.37,3.92-8.12,9.47-13.69,16l0-.1c1.32,5.14,2.78,10.79,4.31,16.71.14.56.29,1.11.42,1.62l-.2,0,3-3.5c1-1.15,2-2.26,2.9-3.41a42,42,0,0,0,4.61-7,39.61,39.61,0,0,0,2.84-7c.38-1.13.61-2.26.87-3.33s.43-2.12.53-3.12a40.44,40.44,0,0,0,.17-9.54c-.08-1.13-.25-2-.33-2.57s-.1-.77-.12-.9,0,.07.05.22.07.38.12.67c.09.59.27,1.44.37,2.57a40,40,0,0,1-.1,9.57c-.1,1-.32,2.05-.51,3.14s-.49,2.21-.86,3.35a39.57,39.57,0,0,1-2.85,7.08,41.14,41.14,0,0,1-4.62,7.07c-.91,1.16-1.91,2.26-2.89,3.42l-3,3.5-.14.17-.06-.22c-.13-.51-.27-1.07-.42-1.62l-4.29-16.72,0-.05,0,0,13.84-16,4-4.55,1-1.2.27-.3Z" style="fill:#263238"></path><path d="M495.39,159.54h-.22A40.64,40.64,0,0,0,463,173.62L458,179.47l18.58,1.95Z" style="fill:#407BFF"></path><path d="M495.39,159.54l-.09.1-.25.31-1,1.19-3.86,4.52-13.56,15.83,0,0h-.05l-16.94-1.76-1.64-.17-.22,0,.14-.17,3-3.44c1-1.13,1.92-2.27,2.91-3.33a41.4,41.4,0,0,1,6.23-5.53,38.57,38.57,0,0,1,6.5-3.8c1.06-.53,2.13-.92,3.14-1.33s2-.72,3-1a39.44,39.44,0,0,1,9.32-1.48c1.11-.07,2,0,2.56,0h.67l.23,0h-.9c-.58,0-1.45,0-2.55.06a39.72,39.72,0,0,0-9.28,1.55c-1,.24-2,.62-3,1s-2.07.8-3.12,1.33a39.19,39.19,0,0,0-6.45,3.8,41.08,41.08,0,0,0-6.19,5.52c-1,1.05-1.92,2.19-2.91,3.32l-3,3.45-.08-.2,1.65.18,16.93,1.78-.09,0L490,165.68l3.92-4.51c.46-.52.81-.93,1.05-1.21l.28-.31C495.35,159.58,495.38,159.54,495.39,159.54Z" style="fill:#263238"></path><path d="M562.26,116c-2.66-2.3-13.49.36-28,7.94a90.54,90.54,0,0,0-23,17.14l-42.67,49.49,13,11.24,7.56,6.52,13,11.24L541,174.64a90.32,90.32,0,0,0,10-14.14,108.15,108.15,0,0,0,7.48-15.71c5.69-15.23,6.41-26.52,3.74-28.81" style="fill:#f5f5f5"></path><line x1="475.41" y1="182.71" x2="508.88" y2="211.22" style="fill:#f5f5f5"></line><path d="M508.88,211.22c-.05.05-7.57-6.3-16.81-14.17s-16.7-14.29-16.66-14.34S483,189,492.22,196.87,508.92,211.17,508.88,211.22Z" style="fill:#263238"></path><line x1="473.97" y1="184.08" x2="507.43" y2="212.59" style="fill:#f5f5f5"></line><path d="M507.43,212.59s-7.56-6.29-16.8-14.17-16.7-14.29-16.66-14.34,7.57,6.29,16.81,14.17S507.48,212.54,507.43,212.59Z" style="fill:#263238"></path><line x1="472.63" y1="185.68" x2="506.1" y2="214.2" style="fill:#f5f5f5"></line><path d="M506.1,214.2c-.05,0-7.57-6.3-16.81-14.17s-16.7-14.3-16.66-14.35,7.57,6.3,16.81,14.17S506.14,214.15,506.1,214.2Z" style="fill:#263238"></path><line x1="471.29" y1="187.29" x2="504.76" y2="215.8" style="fill:#f5f5f5"></line><path d="M504.76,215.8s-7.57-6.29-16.81-14.17-16.7-14.29-16.66-14.34,7.57,6.29,16.81,14.17S504.8,215.75,504.76,215.8Z" style="fill:#263238"></path><line x1="469.96" y1="188.89" x2="503.42" y2="217.41" style="fill:#f5f5f5"></line><path d="M503.42,217.41c0,.05-7.57-6.3-16.81-14.17s-16.7-14.3-16.65-14.35,7.56,6.3,16.8,14.17S503.46,217.36,503.42,217.41Z" style="fill:#263238"></path><path d="M512.24,174.14l-.16.26c-.11.17-.31.4-.54.7-.48.61-1.2,1.46-2.09,2.51-1.77,2.09-4.26,5-7,8.11s-5.3,6-7.14,8l-2.18,2.42-.61.64a1.77,1.77,0,0,1-.22.22,2,2,0,0,1,.19-.25l.57-.67,2.13-2.47,7.08-8.07,7.09-8.07,2.14-2.45c.24-.3.45-.52.57-.68S512.23,174.13,512.24,174.14Z" style="fill:#263238"></path><path d="M529,188.54c0,.05-7.55-6.34-16.76-14.27s-16.65-14.41-16.61-14.46,7.54,6.35,16.76,14.28S529.06,188.49,529,188.54Z" style="fill:#263238"></path><path d="M500.86,192.78a.57.57,0,0,1,.33,0,1.42,1.42,0,0,1,.74.54,1.33,1.33,0,0,1,.14,1.34,1.43,1.43,0,0,1-2.69-.13,1.33,1.33,0,0,1,.27-1.32,1.41,1.41,0,0,1,.78-.47.58.58,0,0,1,.33,0,1.91,1.91,0,0,1-.31.09,1.39,1.39,0,0,0-.68.49,1.18,1.18,0,0,0-.19,1.14,1.22,1.22,0,0,0,2.29.11,1.18,1.18,0,0,0-.08-1.16,1.42,1.42,0,0,0-.63-.55C501,192.81,500.86,192.8,500.86,192.78Z" style="fill:#263238"></path><path d="M509.29,183.37a.57.57,0,0,1,.33,0,1.44,1.44,0,0,1,.73.54,1.33,1.33,0,0,1,.14,1.34,1.43,1.43,0,0,1-2.69-.13,1.33,1.33,0,0,1,.27-1.32,1.41,1.41,0,0,1,.78-.47c.22,0,.34,0,.33,0s-.11,0-.31.09a1.36,1.36,0,0,0-.67.48,1.18,1.18,0,0,0-.2,1.15,1.23,1.23,0,0,0,2.3.11,1.18,1.18,0,0,0-.09-1.16,1.45,1.45,0,0,0-.62-.55C509.4,183.4,509.28,183.39,509.29,183.37Z" style="fill:#263238"></path><g style="opacity:0.30000000000000004"><path d="M477,180.84s12.71-14.07,18.37-21.3c-4.29,2.17-9.15,4.67-12.58,8A20.08,20.08,0,0,0,477,180.84Z"></path></g><path d="M469,226.07a2.5,2.5,0,1,0,.17,0" style="fill:#407BFF"></path><circle cx="533.34" cy="149.65" r="11.99" transform="translate(23.75 366.83) rotate(-38.76)" style="fill:#fff"></circle><path d="M545.24,151.14a22.31,22.31,0,0,0-.11-2.94,11.88,11.88,0,0,0-3.53-7,11.68,11.68,0,0,0-4.66-2.79,11.83,11.83,0,0,0-6.19-.24,11.06,11.06,0,0,0-3.15,1.22,11.25,11.25,0,0,0-2.77,2.17,11.71,11.71,0,0,0-1.73,13.76,11.74,11.74,0,0,0,4.9,4.75,11.8,11.8,0,0,0,11.26-.25,12,12,0,0,0,5.15-5.89,21.26,21.26,0,0,0,.83-2.82,3.9,3.9,0,0,1-.08.76,5,5,0,0,1-.19.92,7.76,7.76,0,0,1-.37,1.22,12.05,12.05,0,0,1-10.51,7.78,12.19,12.19,0,0,1-6.31-1.29,11.71,11.71,0,0,1-2.87-2,11.5,11.5,0,0,1-2.25-2.9,12.15,12.15,0,0,1,1.8-14.36,11.16,11.16,0,0,1,2.9-2.25,11.76,11.76,0,0,1,3.28-1.26,12.28,12.28,0,0,1,6.43.3,12.1,12.1,0,0,1,4.79,2.93,11.94,11.94,0,0,1,3.47,7.22,7.24,7.24,0,0,1,.07,1.27,6.19,6.19,0,0,1,0,.93A3.59,3.59,0,0,1,545.24,151.14Z" style="fill:#263238"></path><path d="M562.26,116c-2.66-2.3-13.49.36-28,7.94l24.21,20.87c5.69-15.23,6.41-26.52,3.74-28.81" style="fill:#407BFF"></path><path d="M562.26,116s.15.14.43.45a5.7,5.7,0,0,1,.73,1.67,21.38,21.38,0,0,1,.23,7c-.61,6.11-2.75,14.87-7.16,25.08a108.92,108.92,0,0,1-8.76,16,93.61,93.61,0,0,1-6.19,8.14l-7.09,8.25-32,37.13-.17.19-.19-.17L485.3,205.25l-16.82-14.51-.19-.16.17-.2,32-37.1,7.11-8.22,3.39-3.93c1.16-1.28,2.37-2.43,3.59-3.54a96.53,96.53,0,0,1,14.58-10.94,117.2,117.2,0,0,1,13.31-6.8A74.23,74.23,0,0,1,553,116.08a21.68,21.68,0,0,1,7-.91,7.7,7.7,0,0,1,1,.19,5.18,5.18,0,0,1,.72.26c.35.23.51.36.51.36l-.53-.31a5.32,5.32,0,0,0-.72-.25c-.29-.08-.64-.09-1-.16a22.53,22.53,0,0,0-6.92,1,76.52,76.52,0,0,0-10.5,3.84,120.16,120.16,0,0,0-13.23,6.85,96.37,96.37,0,0,0-14.49,10.94c-1.2,1.11-2.42,2.27-3.54,3.53l-3.39,3.93-7.09,8.24-32,37.14,0-.37,16.82,14.5,16.82,14.5-.37,0,32-37.09,7.1-8.23a91,91,0,0,0,6.18-8.09,108.37,108.37,0,0,0,8.78-15.9c4.45-10.16,6.63-18.88,7.3-25a22.15,22.15,0,0,0-.14-7,5.75,5.75,0,0,0-.68-1.67C562.39,116.15,562.26,116,562.26,116Z" style="fill:#263238"></path><path d="M534.31,158.56a9.74,9.74,0,0,1-.32-2.4c-.12-1.48-.21-3.54-.26-5.81s-.07-4.14-.1-5.82a11.67,11.67,0,0,1,0-2.41,11.07,11.07,0,0,1,.32,2.39c.12,1.49.21,3.55.25,5.82s.08,4.14.11,5.82A11.73,11.73,0,0,1,534.31,158.56Z" style="fill:#263238"></path><path d="M531.63,156.27a27.21,27.21,0,0,1-.55-5.26,26.92,26.92,0,0,1,0-5.29,27,27,0,0,1,.56,5.26A26.48,26.48,0,0,1,531.63,156.27Z" style="fill:#263238"></path><path d="M477,251.37a6.2,6.2,0,0,0-6.38,1.58,4.71,4.71,0,0,0-.39,5.61,5.34,5.34,0,0,0-3.13,5,6.47,6.47,0,0,0,3,5.16,8.23,8.23,0,0,0,6,1,9.45,9.45,0,0,0,.87-18.31Z" style="fill:#ebebeb"></path><path d="M433.23,243.82a5.4,5.4,0,1,1-5.39-5.4A5.39,5.39,0,0,1,433.23,243.82Z" style="fill:#ebebeb"></path><path d="M309.15,139.09a36.39,36.39,0,0,1-6.26.27,36.48,36.48,0,0,1-6.26-.27,38.46,38.46,0,0,1,6.26-.26A38.36,38.36,0,0,1,309.15,139.09Z" style="fill:#263238"></path><path d="M309.15,165.67a38.36,38.36,0,0,1-6.26.26,38.46,38.46,0,0,1-6.26-.26,37.16,37.16,0,0,1,6.26-.26A37.06,37.06,0,0,1,309.15,165.67Z" style="fill:#263238"></path><path d="M309.15,192.24a38.36,38.36,0,0,1-6.26.26,38.46,38.46,0,0,1-6.26-.26,38.46,38.46,0,0,1,6.26-.26A38.36,38.36,0,0,1,309.15,192.24Z" style="fill:#263238"></path><path d="M309.15,218.81a37.06,37.06,0,0,1-6.26.26,37.16,37.16,0,0,1-6.26-.26,38.46,38.46,0,0,1,6.26-.26A38.36,38.36,0,0,1,309.15,218.81Z" style="fill:#263238"></path><path d="M309.15,245.39a38.36,38.36,0,0,1-6.26.26,38.46,38.46,0,0,1-6.26-.26,37.16,37.16,0,0,1,6.26-.26A37.06,37.06,0,0,1,309.15,245.39Z" style="fill:#263238"></path><path d="M309.15,272a38.36,38.36,0,0,1-6.26.26,38.46,38.46,0,0,1-6.26-.26,38.46,38.46,0,0,1,6.26-.26A38.36,38.36,0,0,1,309.15,272Z" style="fill:#263238"></path></g><g id="freepik--character-3--inject-20"><path d="M589,285.23c-7.1.68-12.42,11.68-10.93,17.55.73,2.85,2.28,6.07.1,8.38s-7,2.47-9.09,4.81c0,0-2.62,3-2,6.64s.34,8.52-2.47,10l14.8,4.11c1.38-1.61,1.8-4,3.18-5.65-1.59,1.71-2.83,7.46,4.94,7.53L592,334c13.37,2.42,27.46,5.61,37.53-.86" style="fill:#263238"></path><path d="M658.18,312c-1.15-2.66-2.89-5.07-3.75-7.84-1.85-5.95.48-13.05-3-18.24-2.45-3.7-7.09-5.19-11.43-6.11s-8.45-1.33-11.88-4.14c-2.52-2.07-4.12-5.07-6.63-7.14-3.57-3-8.52-3.61-13.15-3.47s-9.61,1-13.67,3.52-7.24,6.73-7.57,11.47c-.16,2.32.34,4.68-.18,6.95-.57,2.48-2.29,4.54-3.26,6.9a12.21,12.21,0,0,0,4.38,14.29l36.32,39c7.06,1.95,13.91-7.34,18.72-12.86S661.08,318.68,658.18,312Z" style="fill:#263238"></path><path d="M588.44,302.74c.46-9.65,6.68-21.57,16.3-20.7l30.1,7.14c2.92.27,4.64,2.47,4.62,5.4l-1.63,72.63.21,0s-6.49,20.52-26.42,14.62c-4-1.17-5.59.3-6.45-4.1h0c-.86-.28,0,0,0-.53-.33-5.43-.74-16.63-.74-16.63h0c-.16-5.84-.19-8.23-.19-8.18s-12.35-1.86-15.14-17.9C587.71,326.56,587.92,313.45,588.44,302.74Z" style="fill:#ffbf9d"></path><path d="M613.16,314.92a2.06,2.06,0,0,0,2,2.05,2,2,0,0,0,2.1-1.89,2.07,2.07,0,0,0-2-2.05A2,2,0,0,0,613.16,314.92Z" style="fill:#263238"></path><path d="M591.84,315.25a2.06,2.06,0,0,0,2,2.05,2,2,0,0,0,2.1-1.89,2.06,2.06,0,0,0-2-2.05A2,2,0,0,0,591.84,315.25Z" style="fill:#263238"></path><path d="M590.86,309.91c.26.35,2-1,4.47-.89s4.09,1.62,4.38,1.29c.13-.15-.11-.78-.84-1.47a5.45,5.45,0,0,0-7.06-.32C591,309.15,590.73,309.75,590.86,309.91Z" style="fill:#263238"></path><path d="M612.9,310.32c.31.32,2.06-1.21,4.63-1.33s4.52,1.15,4.79.8c.13-.16-.2-.74-1.05-1.34a6.23,6.23,0,0,0-3.85-1.06,6,6,0,0,0-3.67,1.48C613,309.56,612.74,310.18,612.9,310.32Z" style="fill:#263238"></path><path d="M605.37,326.17a14.14,14.14,0,0,0-3.61-.6c-.56-.05-1.1-.15-1.2-.54a2.89,2.89,0,0,1,.35-1.68l1.61-4.34c2.24-6.17,3.85-11.25,3.6-11.33s-2.27,4.84-4.5,11l-1.54,4.37a3.24,3.24,0,0,0-.26,2.22,1.46,1.46,0,0,0,.94.82,4.48,4.48,0,0,0,1,.12A15.21,15.21,0,0,0,605.37,326.17Z" style="fill:#263238"></path><path d="M604.23,352.43a40.87,40.87,0,0,0,21.43-6.05s-5.23,11.84-21.34,10.57Z" style="fill:#ff9a6c"></path><path d="M606.39,331.5A4,4,0,0,1,610,330a3.66,3.66,0,0,1,2.54,1.32,2.3,2.3,0,0,1,.21,2.64,2.66,2.66,0,0,1-2.89.77A8.07,8.07,0,0,1,607,333a2.29,2.29,0,0,1-.64-.64.74.74,0,0,1,0-.83" style="fill:#407BFF"></path><path d="M611.92,327.61c-.36,0-.33,2.39-2.36,4.13s-4.6,1.51-4.62,1.84c0,.16.58.46,1.66.48a6,6,0,0,0,3.86-1.41,5.24,5.24,0,0,0,1.83-3.46C612.36,328.18,612.09,327.59,611.92,327.61Z" style="fill:#263238"></path><path d="M612.42,302.8c.23.6,2.44.28,5,.56s4.72.95,5.06.41c.15-.27-.22-.83-1.08-1.4a8.85,8.85,0,0,0-7.7-.73C612.79,302,612.32,302.52,612.42,302.8Z" style="fill:#263238"></path><path d="M591,301.89c.45.5,2.19-.05,4.29-.1s3.88.28,4.28-.25c.18-.26-.11-.76-.89-1.23a6.61,6.61,0,0,0-3.5-.77,6.46,6.46,0,0,0-3.41,1.06C591,301.13,590.76,301.65,591,301.89Z" style="fill:#263238"></path><path d="M667.42,308.19c-1.72-2.68,1-6-1.54-8.42-2.29-2.19-7.87-1.87-10-4.12-1.69-1.75-1.8-2.24-2-4-.22-2.19-1.89-11.35-15.5-12.24L637.11,288c-.87-.33-1.76-.61-2.65-.86a147.54,147.54,0,0,0-34.61-5.52c-1.23,2.51.4,5.61,2.73,7.14s5.19,2,7.88,2.69,5.49,2,6.8,4.46.72,5.93,2,8.62c2.16,4.62,9,5.55,11.1,10.18,1.61,3.51-.13,7.56-.31,11.41a14.08,14.08,0,0,0,5.25,11.49c2.71,2.14,7.33,6,7.56,5.17l34.41-25.21C679,312.31,669.77,311.86,667.42,308.19Z" style="fill:#263238"></path><path d="M641.41,341a11.77,11.77,0,0,1-3.18-.84,15.68,15.68,0,0,1-9.29-18.36c.29-1.22.66-2.45.86-3.72a8.32,8.32,0,0,0-.16-3.84,4.81,4.81,0,0,0-2.5-2.9,23,23,0,0,0-4-1.37,8.22,8.22,0,0,1-3.82-2.09,7.2,7.2,0,0,1-1.66-3.89c-.41-2.7-.15-5.42-1.23-7.61l-.2-.4-.26-.37a4.46,4.46,0,0,0-.55-.67,6.6,6.6,0,0,0-1.4-1,13,13,0,0,0-3.19-1.07,22.33,22.33,0,0,1-6-1.72,12.74,12.74,0,0,1-3.95-3.28,12.3,12.3,0,0,1-1.92-3.36,11.37,11.37,0,0,1-.61-2.36,4.53,4.53,0,0,1-.06-.85,15.46,15.46,0,0,0,.86,3.14,12.68,12.68,0,0,0,2,3.25,12.47,12.47,0,0,0,3.89,3.13,22.27,22.27,0,0,0,5.88,1.63,13.24,13.24,0,0,1,3.31,1.09,6.68,6.68,0,0,1,1.52,1.08,5.45,5.45,0,0,1,.61.74l.28.39.22.43c1.17,2.38.89,5.13,1.3,7.76a6.74,6.74,0,0,0,1.54,3.61,7.8,7.8,0,0,0,3.59,1.94,23.08,23.08,0,0,1,4.07,1.41,6,6,0,0,1,1.72,1.32,5.27,5.27,0,0,1,1,1.89,8.79,8.79,0,0,1,.17,4.07c-.22,1.31-.59,2.54-.88,3.75a15.38,15.38,0,0,0,8.9,18.06,16.93,16.93,0,0,0,2.28.8A6.1,6.1,0,0,1,641.41,341Z" style="fill:#263238"></path><path d="M590.68,285.91a23.62,23.62,0,0,0-2.47-.26,11.72,11.72,0,0,0-6.39,1.76,11.43,11.43,0,0,0-5.16,8.09,20.85,20.85,0,0,0,.2,5.87c.15,1,.34,2.05.52,3.11a11.06,11.06,0,0,1,.12,3.31,3.93,3.93,0,0,1-1.73,2.88,6.79,6.79,0,0,1-3.14.81,11.52,11.52,0,0,0-2.94.46,7.28,7.28,0,0,0-2.41,1.42,7.08,7.08,0,0,0-2.4,4.52,14.63,14.63,0,0,0,.37,4.6,34.5,34.5,0,0,1,.65,3.83,9.78,9.78,0,0,1-.14,2.95,5.7,5.7,0,0,1-.65,1.75,3.63,3.63,0,0,1-.27.41c-.06.08-.1.13-.11.12a7.78,7.78,0,0,0,.83-2.31,10.44,10.44,0,0,0,.05-2.89,34.74,34.74,0,0,0-.72-3.79,14.52,14.52,0,0,1-.44-4.72A7.46,7.46,0,0,1,567,313a7.66,7.66,0,0,1,2.57-1.54,11.79,11.79,0,0,1,3.06-.5,6.33,6.33,0,0,0,2.9-.73,3.43,3.43,0,0,0,1.49-2.53c.29-2.1-.37-4.21-.62-6.27a21,21,0,0,1-.18-6,11.73,11.73,0,0,1,5.45-8.34,11.44,11.44,0,0,1,6.59-1.65,10.48,10.48,0,0,1,1.84.27A3.16,3.16,0,0,1,590.68,285.91Z" style="fill:#263238"></path><path d="M661.11,328.87s0-.09.07-.25a4.59,4.59,0,0,0,.2-.74,6.55,6.55,0,0,0-.1-2.92,7.17,7.17,0,0,0-2.47-3.84,6,6,0,0,0-2.59-1.2c-1-.21-2.12-.22-3.25-.52a4.07,4.07,0,0,1-2.78-2.29,9.41,9.41,0,0,1-.75-3.87,21.67,21.67,0,0,0-.25-4.16,5.48,5.48,0,0,0-.83-2,5,5,0,0,0-1.63-1.43,14,14,0,0,0-4.44-1.23,14.31,14.31,0,0,1-4.72-1.37,5.55,5.55,0,0,1-1.88-1.73,8,8,0,0,1-1-2.38c-.45-1.68-.58-3.42-1-5.1a10,10,0,0,0-6.75-6.93,17.34,17.34,0,0,0-4.81-.45,11.19,11.19,0,0,1-2.38-.26,5,5,0,0,1-2.11-1.05,10.39,10.39,0,0,1-2.3-3.84A10.28,10.28,0,0,0,613,278a10.57,10.57,0,0,0-6.72-2.84,9.5,9.5,0,0,0-5.8,1.71,11,11,0,0,0-3.16,3.38,10,10,0,0,0-1.11,2.73c-.09.32-.11.58-.15.75l-.06.26a6.53,6.53,0,0,1,.15-1,9.63,9.63,0,0,1,1.06-2.77,11,11,0,0,1,3.16-3.47,9.69,9.69,0,0,1,5.92-1.79,10.78,10.78,0,0,1,6.89,2.88,10.34,10.34,0,0,1,2.41,3.47,10.07,10.07,0,0,0,2.23,3.73,6.51,6.51,0,0,0,4.31,1.23,17.44,17.44,0,0,1,4.89.46,10.3,10.3,0,0,1,7,7.14c.45,1.72.58,3.47,1,5.11a7.6,7.6,0,0,0,1,2.28,5.14,5.14,0,0,0,1.77,1.64c2.88,1.58,6.36,1.1,9.14,2.61A5.28,5.28,0,0,1,648.6,307a5.79,5.79,0,0,1,.87,2.07,21.69,21.69,0,0,1,.24,4.21,9.12,9.12,0,0,0,.71,3.77,3.92,3.92,0,0,0,1.08,1.42,4.07,4.07,0,0,0,1.53.76c1.09.3,2.2.32,3.23.54a6.19,6.19,0,0,1,2.67,1.26,7.25,7.25,0,0,1,2.47,3.95,6.4,6.4,0,0,1,0,3,3.65,3.65,0,0,1-.23.74A1.13,1.13,0,0,1,661.11,328.87Z" style="fill:#455a64"></path><path d="M614.32,450.63h78.21l-6.87-17.12s-24.51-66.91-29.58-72.33c-6.65-7.1-17.64-12.8-17.64-12.8L604.6,365.49s-9.81,27.87-11.12,38.85a78.37,78.37,0,0,0-.53,7.88,33.28,33.28,0,0,0,20.76,31.31h0Z" style="fill:#407BFF"></path><path d="M607,343.3l-3.74,4.11s.58-7.94-.37-8.89-2.22,0-2.22,0a2.91,2.91,0,0,0-2.06-1.91,5.33,5.33,0,0,0-3.34.8s-3.17-2-4.92-.85a7.88,7.88,0,0,0-2.38,2.27,7.75,7.75,0,0,0-3.17,1.59,5.85,5.85,0,0,0-1.27,1.54s-1.9.68-1.9,2-2.07,14-2.54,18.73-1.58,12.12-1.58,12.12l19.15-.34s.27-9.9.62-11.09a16.29,16.29,0,0,0,5.83-4.6c2.7-3.33,4.73-8.41,6.18-10.85.87-1.47,3.36-5.64,3.37-6,0-1.14-1.28-1.49-2.38-1.22S608,342.43,607,343.3Z" style="fill:#ffbf9d"></path><path d="M607,343.3a4.4,4.4,0,0,1,.42-.47c.29-.3.69-.77,1.29-1.31a4.84,4.84,0,0,1,1.11-.78,2.84,2.84,0,0,1,1.63-.23,1.8,1.8,0,0,1,.88.37,1.25,1.25,0,0,1,.44.93,3.15,3.15,0,0,1-.41,1l-.52,1c-.73,1.31-1.57,2.75-2.48,4.3s-1.69,3.35-2.65,5.2a32.64,32.64,0,0,1-3.52,5.67,16.69,16.69,0,0,1-5.82,4.59l.13-.15c-.26,1.63-.3,3.49-.4,5.32s-.13,3.77-.19,5.72v.23h-.24l-19.15.35h-.3l0-.3c.14-1.1.3-2.29.45-3.48q.54-4.08,1-8c.3-2.65.66-5.24,1-7.77l1.08-7.4c.17-1.2.35-2.39.48-3.55,0-.31,0-.53.09-.9a1.89,1.89,0,0,1,.49-.86,4,4,0,0,1,1.53-1l-.14.13a5.86,5.86,0,0,1,.93-1.2,6,6,0,0,1,1.09-1,9,9,0,0,1,2.59-1.08l-.14.1A7.53,7.53,0,0,1,589.4,337a9.43,9.43,0,0,1,.9-.66,2.48,2.48,0,0,1,1.11-.37,7.29,7.29,0,0,1,4,1.24h-.21a5.35,5.35,0,0,1,3.31-.83,3,3,0,0,1,2.35,2.06l-.26-.09a2.11,2.11,0,0,1,1.78-.38,1.37,1.37,0,0,1,.75.54,1.27,1.27,0,0,1,.18.42,3.06,3.06,0,0,1,.1.41,17.16,17.16,0,0,1,.19,3.05c0,1.91-.1,3.58-.21,5l-.18-.07,2.82-3,.74-.77c.16-.18.25-.26.26-.25a1.89,1.89,0,0,1-.23.28c-.17.21-.4.47-.7.81l-2.73,3.08-.2.23,0-.3c.08-1.41.15-3.08.14-5a18.45,18.45,0,0,0-.23-3,2.07,2.07,0,0,0-.24-.7,1,1,0,0,0-.57-.42,1.86,1.86,0,0,0-1.49.34l-.19.14-.08-.22a2.64,2.64,0,0,0-2.07-1.8,5,5,0,0,0-3.05.8l-.11.06-.1-.06a6.93,6.93,0,0,0-3.76-1.15,2.27,2.27,0,0,0-.92.3c-.29.2-.58.41-.86.64a7,7,0,0,0-1.46,1.58l-.06.08-.09,0a8.69,8.69,0,0,0-2.44,1,5.62,5.62,0,0,0-1,.9,5.91,5.91,0,0,0-.83,1.06l-.06.1-.08,0a3.92,3.92,0,0,0-1.35.87,1.38,1.38,0,0,0-.36.64c-.05.2,0,.57-.08.85-.13,1.18-.3,2.36-.47,3.57q-.52,3.6-1.07,7.4c-.36,2.53-.72,5.12-1,7.75s-.7,5.34-1,8.06c-.16,1.2-.31,2.38-.46,3.49l-.26-.3,19.16-.32-.24.23c.07-2,.14-3.86.21-5.72a48.29,48.29,0,0,1,.44-5.43v-.09l.12-.05a16.38,16.38,0,0,0,5.67-4.43,32.26,32.26,0,0,0,3.51-5.58c1-1.84,1.79-3.61,2.7-5.19s1.79-3,2.53-4.27l.53-.95a3.26,3.26,0,0,0,.39-.88,1.19,1.19,0,0,0-1.11-1.11,2.72,2.72,0,0,0-1.52.18,4.89,4.89,0,0,0-1.1.73C607.66,342.7,607.07,343.33,607,343.3Z" style="fill:#ff9a6c"></path><g style="opacity:0.30000000000000004"><path d="M607.77,427l-6.87,6.17c9.7.33,17.92-4.48,25.75-10.22s22.29-18.65,24.9-28C638.48,402.28,619.09,417.21,607.77,427Z"></path></g><path d="M508.2,406.06c-.18,0-13.34-1.48-16.74-1.8a2.25,2.25,0,0,0-2.35,1.46c-.22.68-.09,1.42,1.13,1.86,3.38,1.22,15.16,2.69,15.16,2.69s-5.26-.38-5.46,1.69,2.41,3.46,2.41,3.46-1.76.73-1.37,2.25,2.87,2.61,2.87,2.61l1.32.55s-2.18,0-2.22,1.2a2.92,2.92,0,0,0,2.36,2.56c1.17.27,6.55,1.39,6.55,1.39l3.94-9.43-3-9Z" style="fill:#ffbf9d"></path><path d="M547.9,411.49s-17.3,1.73-18.63,1.09-15-7.77-17.07-8.34-12.08.23-12.08.23-2.15,2.3,2.62,3.75c5,1.52,7.77.94,7.14,1.19l-1.19,16s8.47,3.35,12.34,3.08l5.4-1.55L551,431.24Z" style="fill:#ffbf9d"></path><path d="M504.93,410.12a21.7,21.7,0,0,0,2,.89,4.28,4.28,0,0,1,1.79,1.28,2,2,0,0,1,.25,2.09,2.79,2.79,0,0,1-2.31,1.08,12.11,12.11,0,0,1-3.4-.24" style="fill:#ffbf9d"></path><path d="M503.3,415.22c0-.07.72,0,1.86.07a12.94,12.94,0,0,0,2-.12,2.07,2.07,0,0,0,1.75-1.15,2,2,0,0,0-.66-2,6,6,0,0,0-1.65-1,4.57,4.57,0,0,1-1.64-.92,15.1,15.1,0,0,1,1.78.58,5.62,5.62,0,0,1,1.84,1,2.41,2.41,0,0,1,.82,2.48,1.91,1.91,0,0,1-.95,1.09,3.36,3.36,0,0,1-1.22.37,9.53,9.53,0,0,1-2.06,0A4.35,4.35,0,0,1,503.3,415.22Z" style="fill:#ff9a6c"></path><path d="M505.56,420.84a27,27,0,0,0,8.18-.36c.83-.17,1.78-.49,2-1.29a1.71,1.71,0,0,0-.67-1.78,4.4,4.4,0,0,0-1.87-.72A46.49,46.49,0,0,0,507,416" style="fill:#ffbf9d"></path><path d="M507,416a15.31,15.31,0,0,1,3.1,0,24.9,24.9,0,0,1,3.34.42,4.22,4.22,0,0,1,1.93.8,2.19,2.19,0,0,1,.65,1,1.57,1.57,0,0,1-.1,1.25,2.78,2.78,0,0,1-1.94,1.18c-.69.14-1.34.24-2,.32a24.45,24.45,0,0,1-3.37.17,18.24,18.24,0,0,1-2.26-.17,2.68,2.68,0,0,1-.82-.17c0-.09,1.19,0,3.08,0a29.31,29.31,0,0,0,3.31-.28c.62-.09,1.27-.2,1.93-.34a2.32,2.32,0,0,0,1.59-.92,1.36,1.36,0,0,0-.43-1.6,3.75,3.75,0,0,0-1.69-.71c-1.21-.27-2.34-.41-3.28-.53A21.61,21.61,0,0,1,507,416Z" style="fill:#ff9a6c"></path><path d="M508.84,421.25a7.53,7.53,0,0,1,1.7-.16,2.51,2.51,0,0,1,1.56.61,1.51,1.51,0,0,1,.44,1.56,2.12,2.12,0,0,1-1.41,1.12,13.6,13.6,0,0,1-5,.44" style="fill:#ffbf9d"></path><path d="M506.16,424.82a7.36,7.36,0,0,1,1.75-.15,16,16,0,0,0,1.87-.2,5.49,5.49,0,0,0,2.07-.74,1.12,1.12,0,0,0,.5-.81,1.34,1.34,0,0,0-.27-.89,2.22,2.22,0,0,0-1.5-.75c-1-.09-1.73.07-1.74,0a3.51,3.51,0,0,1,1.77-.34,2.49,2.49,0,0,1,1.85.83,1.79,1.79,0,0,1,.4,1.21,1.62,1.62,0,0,1-.7,1.2,5.5,5.5,0,0,1-2.3.79,11.34,11.34,0,0,1-1.94.1A5,5,0,0,1,506.16,424.82Z" style="fill:#ff9a6c"></path><path d="M499.88,404.81c.06,0-.05.39,0,1.05a2.23,2.23,0,0,0,.45,1.09,3,3,0,0,0,1.33.83,17.49,17.49,0,0,0,2,.49c.73.17,1.46.36,2.28.47,1.63.23,3.46.39,5.39.53h.2l0,.22c.07.39.1.81.21,1.23a13.9,13.9,0,0,0,2.42,5.19,19.17,19.17,0,0,0,3.29,3.4c2.13,1.7,3.7,2.38,3.65,2.47a4.74,4.74,0,0,1-1.11-.45,18.91,18.91,0,0,1-2.76-1.73,17.42,17.42,0,0,1-3.45-3.4,14,14,0,0,1-2.55-5.37c-.11-.43-.14-.88-.22-1.29l.24.23c-1.94-.14-3.77-.31-5.42-.58a19.24,19.24,0,0,1-2.31-.53,15.61,15.61,0,0,1-2-.56,3.11,3.11,0,0,1-1.43-1,2.43,2.43,0,0,1-.43-1.24,3,3,0,0,1,.1-.81C499.84,404.89,499.87,404.8,499.88,404.81Z" style="fill:#ff9a6c"></path><polygon points="581.05 406.23 539.78 410.81 541.61 434.7 591.5 437.51 581.05 406.23" style="fill:#407BFF"></polygon><g style="opacity:0.30000000000000004"><path d="M589.12,430.19q-1.7-6.45-3.4-12.91a17.6,17.6,0,0,0-2.38-5.94c-1.26-1.74-3.83-5.15-6-4.8l-7.71.95c.27,4,.73,8.26,1.11,12.31a21.38,21.38,0,0,0,4.13,11.33,13,13,0,0,0,10.57,5.14,4.41,4.41,0,0,0,3.54-1.64C589.87,433.35,589.51,431.67,589.12,430.19Z"></path></g><path d="M653.67,391.57c-3.56,9.55-43.33,36.68-43.33,36.68s-12.38,7.88-19.57,8c-9.29.2-16.94-7.74-17-15.64-.06-10.15-.45-49.38-.45-49.38l25.76-1.18v28.64s19.66-19.23,24.3-24.5c9-10.22,18.11-19.52,25.71-16.28" style="fill:#407BFF"></path><path d="M649.1,357.93l-1.17-.34a8.22,8.22,0,0,0-1.47-.22,4.3,4.3,0,0,0-1,0,7.12,7.12,0,0,0-1.09.1c-3.1.45-7.14,2.89-11.39,6.84-2.14,2-4.37,4.29-6.73,6.89l-3.65,4.09c-1.29,1.39-2.65,2.82-4.07,4.27-5.68,5.82-12.19,12.28-19.33,19.31l-.38.37v-.53c0-8.77,0-18.44,0-28.64l.26.25-25.76,1.19.25-.26c0,5.16.1,10.6.15,16.12.08,9.48.16,18.72.24,27.66l0,3.33c0,1.1,0,2.22.09,3.28a14.38,14.38,0,0,0,2,6,17.32,17.32,0,0,0,9.5,7.59,15.7,15.7,0,0,0,5.9.72,23.6,23.6,0,0,0,5.67-1.37,70.72,70.72,0,0,0,10.18-4.82,45.87,45.87,0,0,0,4.54-2.85l4.24-3q4.15-2.94,7.9-5.7a254.7,254.7,0,0,0,22.85-18.44,46.44,46.44,0,0,0,5.39-5.88,9.65,9.65,0,0,0,.67-1,5.26,5.26,0,0,0,.43-.75l.32-.64a9.65,9.65,0,0,1-1.34,2.45,43.91,43.91,0,0,1-5.33,6,242.14,242.14,0,0,1-22.77,18.6q-3.74,2.78-7.88,5.73l-4.24,3a45.72,45.72,0,0,1-4.56,2.88A70.1,70.1,0,0,1,597.31,435a23.69,23.69,0,0,1-5.79,1.41,16.16,16.16,0,0,1-6.08-.73,17.75,17.75,0,0,1-9.79-7.8,14.91,14.91,0,0,1-2-6.23c-.11-1.13-.07-2.22-.1-3.33l0-3.33c-.08-8.93-.17-18.18-.25-27.65-.05-5.52-.1-11-.15-16.12V371h.25l25.76-1.17h.26v.25c0,10.2,0,19.87,0,28.64l-.37-.16c7.15-7,13.68-13.45,19.38-19.24q2.13-2.18,4.08-4.25l3.67-4.07c2.37-2.59,4.63-4.91,6.79-6.87,4.29-3.94,8.39-6.37,11.54-6.78a6.11,6.11,0,0,1,1.1-.09,5.19,5.19,0,0,1,1,0,8.73,8.73,0,0,1,1.48.26C648.71,357.78,649.1,357.93,649.1,357.93Z" style="fill:#263238"></path><path d="M579.8,419s.07-.32.3-.84.57-1.28,1-2.19a63.09,63.09,0,0,1,4.08-6.86,61.26,61.26,0,0,1,4.91-6.3c.68-.76,1.25-1.36,1.66-1.76s.64-.6.67-.58A27.57,27.57,0,0,1,590.4,403c-1.29,1.58-3,3.79-4.76,6.35s-3.19,5-4.19,6.74A30.53,30.53,0,0,1,579.8,419Z" style="fill:#407BFF"></path><path d="M718.12,359.21h0a6.94,6.94,0,0,0-8.27,5.25l-18.93,86.17,13.85,0,18.6-83.18A6.93,6.93,0,0,0,718.12,359.21Z" style="fill:#263238"></path><path d="M603.35,347.17a7.9,7.9,0,0,1,0,2.84,8.08,8.08,0,0,1-.49,2.8,7.9,7.9,0,0,1,0-2.84A8.08,8.08,0,0,1,603.35,347.17Z" style="fill:#ff9a6c"></path><path d="M599,415.94a12.71,12.71,0,0,1-.18-2.59c-.05-1.6-.08-3.8-.08-6.23s0-4.62.08-6.21a12.55,12.55,0,0,1,.18-2.58,12.55,12.55,0,0,1,.18,2.58c.05,1.6.08,3.81.08,6.24s0,4.64-.08,6.23A12.13,12.13,0,0,1,599,415.94Z" style="fill:#263238"></path></g><g id="freepik--character-2--inject-20"><path d="M356.8,289.66l4.47-2.73s5.85-5.22,7.44-6.35,7.74-3.9,8.61-3.83,9.31-.47,11.32-1.4,4.18-2.16,4.18-2.16a3.07,3.07,0,0,1,.21,3.62c-1.2,2.08-7.38,6-7.38,6L388,297.92s-5.75,4.53-9.33,4.83-7-.41-8.05-.09-3.53,1.2-3.53,1.2Z" style="fill:#ffbf9d"></path><polygon points="372.79 290.65 412.02 264.63 414.25 267.91 375.38 293.81 372.79 290.65" style="fill:#263238"></polygon><path d="M394.83,283s3,1.22,1.41,4-3.64,1.88-3.64,1.88.74,3-2.65,4.56a5.09,5.09,0,0,1-2,4.56l-1.91,1-1.21-2.34s-7.18-.66-8.26-3.52l0-1.48a2.14,2.14,0,0,1-1.17-2.1c.23-1.4.14-1.43,2.84-2.35s8.43-.31,8.43-.31-3.08-1.17-3-2.76,1.27-2.6,4.57-2.37A32.88,32.88,0,0,1,394.83,283Z" style="fill:#ffbf9d"></path><path d="M394.83,283a11.44,11.44,0,0,1-1.19-.26c-.77-.18-1.9-.44-3.36-.65a23.31,23.31,0,0,0-2.42-.24,6.87,6.87,0,0,0-2.77.37,2.05,2.05,0,0,0-1.06.95,1.78,1.78,0,0,0-.08,1.46,3.33,3.33,0,0,0,1.16,1.17,8.73,8.73,0,0,0,1.61.83l1.37.56-1.48-.12a31.38,31.38,0,0,0-7.05,0,9.56,9.56,0,0,0-1.81.49,7.16,7.16,0,0,0-1.7.75,1.08,1.08,0,0,0-.35.73l-.08.49a2.06,2.06,0,0,0,0,.43,2,2,0,0,0,1,1.38l.14.08v.15c0,.47,0,1,.05,1.48l0-.08.18.33a4.19,4.19,0,0,0,1.62,1.37,12.32,12.32,0,0,0,2,.82,23.56,23.56,0,0,0,4.21.83l.14,0,.06.12c.41.8.82,1.58,1.21,2.35l-.33-.1,1.91-1,0,0a4.8,4.8,0,0,0,1.91-4.33l0-.16.14-.07a4.61,4.61,0,0,0,2.13-1.84,3.67,3.67,0,0,0,.44-2.47l-.06-.32.3.11a2.4,2.4,0,0,0,1.86-.17,4,4,0,0,0,1.3-1.17,4.53,4.53,0,0,0,.69-1.37,2.18,2.18,0,0,0,0-1.25,2.93,2.93,0,0,0-1.11-1.37c-.34-.24-.54-.33-.53-.35a1.83,1.83,0,0,1,.58.27,2.91,2.91,0,0,1,1.25,1.38,2.51,2.51,0,0,1,.1,1.38,5.05,5.05,0,0,1-.7,1.47,4,4,0,0,1-1.38,1.29,2.69,2.69,0,0,1-2.15.22l.25-.21a4.08,4.08,0,0,1-.44,2.75,5,5,0,0,1-2.3,2l.13-.22a5.81,5.81,0,0,1-.36,2.59,4.89,4.89,0,0,1-1.7,2.19h0l-1.9,1-.22.11-.11-.21c-.4-.77-.81-1.55-1.22-2.35l.2.14a24.8,24.8,0,0,1-4.32-.85,12,12,0,0,1-2.13-.85,4.69,4.69,0,0,1-1.82-1.56c-.07-.15-.15-.29-.22-.42v-.08c0-.51,0-1-.05-1.48l.14.22A2.44,2.44,0,0,1,375.1,290a2.72,2.72,0,0,1,0-.57l.09-.51a1.58,1.58,0,0,1,.52-1,6.71,6.71,0,0,1,1.87-.84,9,9,0,0,1,1.9-.5,31.17,31.17,0,0,1,7.17,0l-.1.43a9.35,9.35,0,0,1-1.69-.89,3.79,3.79,0,0,1-1.29-1.35,2.28,2.28,0,0,1,1.37-2.93,6.89,6.89,0,0,1,2.92-.34,20.38,20.38,0,0,1,2.45.29,30.2,30.2,0,0,1,3.35.77c.39.11.68.21.87.28Z" style="fill:#ff9a6c"></path><path d="M389.12,293.43a33.53,33.53,0,0,0-6.19-1.82,34.54,34.54,0,0,0-6.45-.1,5.27,5.27,0,0,1,1.87-.46,16.5,16.5,0,0,1,9.12,1.38A5.42,5.42,0,0,1,389.12,293.43Z" style="fill:#ff9a6c"></path><path d="M392.49,289c-.08.12-1.41-.76-3.29-1.26s-3.46-.65-3.46-.81a6.93,6.93,0,0,1,3.6.31A5.76,5.76,0,0,1,392.49,289Z" style="fill:#ff9a6c"></path><path d="M221.37,137.1a6.76,6.76,0,0,1,6.93-3.57,9.2,9.2,0,0,1,11.34,0,8.19,8.19,0,0,1,12.5,6.44,6.84,6.84,0,0,1,6.21,11.41,6.58,6.58,0,0,1-2.51,12.85l-33.08-19.45A6.73,6.73,0,0,1,221.37,137.1Z" style="fill:#263238"></path><path d="M256.82,165.12A27.91,27.91,0,0,0,228.47,140l-1.45,0c-15.56,1.23-23.21,15.13-21.55,30.66l3.33,51.85,2.27,6.48,26.81,33.6,6.76-30.27.13-14s14.93-2.64,14.81-17.62C259.52,193.47,258.18,178.58,256.82,165.12Z" style="fill:#ffbf9d"></path><path d="M244.75,218.35a36.34,36.34,0,0,1-19.6-5.39s4.81,10.72,19.59,9.1Z" style="fill:#ff9a6c"></path><path d="M252.76,179.08a2.13,2.13,0,0,1-2,2.2,2,2,0,0,1-2.25-1.88,2.15,2.15,0,0,1,2-2.21A2,2,0,0,1,252.76,179.08Z" style="fill:#263238"></path><path d="M253.93,173.27c-.26.28-1.9-.88-4.2-.83s-4,1.24-4.22,1c-.13-.12.13-.63.86-1.18a5.8,5.8,0,0,1,3.37-1.11,5.67,5.67,0,0,1,3.35,1C253.81,172.64,254.06,173.14,253.93,173.27Z" style="fill:#263238"></path><path d="M233.06,180.47a2.14,2.14,0,0,1-2,2.2,2,2,0,0,1-2.24-1.88,2.13,2.13,0,0,1,2-2.2A2,2,0,0,1,233.06,180.47Z" style="fill:#263238"></path><path d="M231.91,173.4c-.26.29-1.91-.88-4.21-.82s-4,1.24-4.22,1c-.13-.12.13-.63.86-1.18a5.83,5.83,0,0,1,3.37-1.12,5.66,5.66,0,0,1,3.36,1C231.78,172.78,232,173.28,231.91,173.4Z" style="fill:#263238"></path><path d="M239.84,190.31a15.34,15.34,0,0,1,3.72-.76c.59-.07,1.14-.2,1.23-.6a2.94,2.94,0,0,0-.42-1.73c-.59-1.41-1.19-2.89-1.83-4.44-2.55-6.33-4.4-11.53-4.15-11.63s2.53,4.94,5.07,11.27c.62,1.55,1.2,3,1.76,4.46a3.4,3.4,0,0,1,.35,2.3,1.45,1.45,0,0,1-.95.88,3.5,3.5,0,0,1-1,.16A14.89,14.89,0,0,1,239.84,190.31Z" style="fill:#263238"></path><path d="M233.1,192c.37,0,.43,2.47,2.6,4.2s4.83,1.4,4.86,1.74c0,.16-.58.5-1.71.56a6.22,6.22,0,0,1-4-1.32,5.37,5.37,0,0,1-2-3.53C232.66,192.65,232.93,192,233.1,192Z" style="fill:#263238"></path><path d="M231.8,166.83c-.26.6-2.25.11-4.66.2s-4.41.63-4.67,0c-.11-.28.28-.84,1.12-1.36a7.14,7.14,0,0,1,3.55-1,7,7,0,0,1,3.55.83C231.52,166,231.92,166.54,231.8,166.83Z" style="fill:#263238"></path><path d="M253.28,167c-.35.56-2,.18-3.88.35s-3.47.71-3.89.21c-.19-.25,0-.8.66-1.36a5.42,5.42,0,0,1,3.06-1.18,5.36,5.36,0,0,1,3.2.73C253.16,166.18,253.43,166.7,253.28,167Z" style="fill:#263238"></path><path d="M255.24,158.28s-4.15-9.3-8.71-11.4c-5.54-2.53-7.77,3.53-13,2.17s-10.52-3.78-15.77.36c-5.75,4.54-3,7.58-3.18,14.23-.9,27-5.67,34.7-7.33,22-.18-1.39-4.06-2.42-4.75-8.28-.9-7.6-1.39-16.85.2-22.29,1.34-4.58,3.88-7.79,8.46-11.35,7.24-5.63,17.34-6,24.22-5.41S255.62,146.52,255.24,158.28Z" style="fill:#263238"></path><path d="M208.18,185.25a4.06,4.06,0,0,0-4.47-3.83c-2.79.32-5.87,2-5.56,7.74.54,10.24,10.7,7.58,10.7,7.29S208.44,189.53,208.18,185.25Z" style="fill:#ffbf9d"></path><path d="M206.42,192.72s-.17.13-.46.29a1.8,1.8,0,0,1-1.33.09c-1.11-.34-2.11-2-2.25-3.85a5.87,5.87,0,0,1,.36-2.58,2,2,0,0,1,1.27-1.43.91.91,0,0,1,1.08.43c.15.28.1.49.15.5s.21-.18.11-.6a1.18,1.18,0,0,0-.44-.62,1.34,1.34,0,0,0-1-.21,2.51,2.51,0,0,0-1.78,1.68,6.19,6.19,0,0,0-.47,2.89c.18,2.06,1.34,3.93,2.84,4.28a1.92,1.92,0,0,0,1.61-.35C206.42,193,206.46,192.73,206.42,192.72Z" style="fill:#ff9a6c"></path><path d="M208,165.4a9.78,9.78,0,0,0,4.38,1.92c1.6.12,3.42-.84,3.66-2.43.1-.71-.09-1.54.37-2.1s1.58-.48,2.44-.41a6.54,6.54,0,0,0,6.69-4.82c.78,1.12,2.55,1,3.69.27a15.21,15.21,0,0,0,2.72-3A4.23,4.23,0,0,1,235.4,153a9.89,9.89,0,0,0,2.24.45c1.34-.15,2-1.74,2.14-3.07s.3-2.9,1.43-3.65,2.41-.34,3.66-.18,2.83-.17,3.12-1.38a2.42,2.42,0,0,0-.49-1.85,6.64,6.64,0,0,0-7.88-2.35,9,9,0,0,0-16.56-1.4,9.12,9.12,0,0,0-14.51,3.62,6.62,6.62,0,0,0-7.26,9.78c-1.82,1.09-3.36,3-3.35,5.07s2.11,4.19,4.15,3.59a3.66,3.66,0,0,0,6.41,3.52" style="fill:#263238"></path><path d="M201.34,161.57a2.42,2.42,0,0,0,.67,2,3.34,3.34,0,0,0,2.08,1.18,3.58,3.58,0,0,0,2.9-.91l-.43-.06a10,10,0,0,0,2.1,2.51,5.9,5.9,0,0,0,1.89,1.13,4.53,4.53,0,0,0,5-1.61,6,6,0,0,0,.79-2.15,2.2,2.2,0,0,0,.06-.83s-.13.28-.29.78a6.76,6.76,0,0,1-.9,2,4.17,4.17,0,0,1-6.15.27,9.93,9.93,0,0,1-2-2.35l-.19-.3-.25.25a3.09,3.09,0,0,1-2.45.83,3,3,0,0,1-1.87-.94A4.76,4.76,0,0,1,201.34,161.57Z" style="fill:#455a64"></path><path d="M220.2,137.78s.27.07.73.25a3.56,3.56,0,0,1,1.62,1.32l.13.2.14-.2a12.85,12.85,0,0,1,4.86-4.11,10,10,0,0,1,4-1,8.46,8.46,0,0,1,4.36,1.15,8.56,8.56,0,0,1,2.63,2.4,6.76,6.76,0,0,1,1.19,3.06l0,.33.31-.1a5.82,5.82,0,0,1,4.27.43,5.67,5.67,0,0,1,2.38,2.45,7.87,7.87,0,0,1,.7,3,2.08,2.08,0,0,0,.1-.84,5.53,5.53,0,0,0-.51-2.32,5.8,5.8,0,0,0-2.46-2.71,6.13,6.13,0,0,0-4.63-.55l.34.23a7.36,7.36,0,0,0-1.25-3.33,9.05,9.05,0,0,0-2.81-2.58,8.85,8.85,0,0,0-4.68-1.21,10.35,10.35,0,0,0-4.22,1.08,12.52,12.52,0,0,0-4.91,4.39h.27a3.55,3.55,0,0,0-1.83-1.3A1.6,1.6,0,0,0,220.2,137.78Z" style="fill:#455a64"></path><polygon points="187.19 450.54 187.55 396.69 195.13 377.05 195.14 371.75 280.72 370.32 280.72 376.49 290.54 400.9 291.06 450.54 241.63 450.54 237.5 428.13 236.55 450.54 187.19 450.54" style="fill:#263238"></polygon><path d="M208.58,218.39l17.86,14,11.31,14.36,4.14-14.89,3-11.68,4.87,4.83,12.33,26.25,13.87,126.91s-24.19,7.09-36.72,7.94-32.5-2.57-32.5-2.57V316.76l-7.11-66.13,8.58-25.34Z" style="fill:#f5f5f5"></path><path d="M244.67,385.26a3.28,3.28,0,0,1,0-.36c0-.26,0-.61,0-1,0-1-.09-2.3-.15-4-.12-3.52-.29-8.56-.5-14.78-.43-12.49-1.12-29.74-2.1-48.77s-2.09-36.27-2.94-48.74c-.44-6.21-.79-11.24-1-14.76-.12-1.72-.21-3.06-.27-4,0-.44,0-.78-.06-1.05a1.55,1.55,0,0,1,0-.35,1.19,1.19,0,0,1,.05.35l.11,1c.09,1,.21,2.29.37,4,.31,3.48.72,8.52,1.19,14.75,1,12.46,2.11,29.68,3.1,48.73S244,352.54,244.31,365c.17,6.25.28,11.31.33,14.8,0,1.72,0,3.07.05,4v1A1.41,1.41,0,0,1,244.67,385.26Z" style="fill:#263238"></path><path d="M205.8,225l-4.13,5.69-33.83,17.8,18.83,57.41,5.07,32.2-19,76.5s23.07,7.94,25.1,5.4c.85-1.06,3.28-6.57,5.8-12.59a134.85,134.85,0,0,0,9.68-37.57c1.42-13,2.71-29.62,1.76-40.86-1.77-21.05-4.56-55.78-4.81-64.91s-1.87-43.59-1.87-43.59Z" style="fill:#407BFF"></path><path d="M247.24,221.6l11.2,6.54,36.24,11.91-2.9,25.63L290.11,332l11.41,79.61s-12.17,4.31-17,2.54-11.41-12.68-11.67-19.27-9.63-70.49-9.63-70.49l-9.13-85.95Z" style="fill:#407BFF"></path><path d="M259.13,228.1a5.4,5.4,0,0,1,.45.51l1.26,1.54c1.1,1.39,2.67,3.35,4.65,5.83l.1.12-.13.1-3.94,3-.06-.33,4.63,1.47.14,0v.16c-.09,8.24-.2,18.63-.32,29.88-.2,13.74-.38,26.17-.51,35.22-.09,4.47-.16,8.11-.22,10.67,0,1.23-.06,2.2-.08,2.9,0,.31,0,.55,0,.75a.9.9,0,0,1,0,.26,1.33,1.33,0,0,1,0-.26c0-.2,0-.45,0-.75,0-.71,0-1.68,0-2.9,0-2.57,0-6.2,0-10.68.09-9.05.22-21.48.36-35.22.16-11.25.31-21.63.43-29.88l.14.2-4.61-1.5-.35-.11.29-.22,4-2.94,0,.22-4.54-5.92-1.19-1.58A4.76,4.76,0,0,1,259.13,228.1Z" style="fill:#263238"></path><path d="M214,318.06a1.68,1.68,0,0,1-.09-.25l-.24-.74c-.23-.68-.54-1.63-.93-2.84-.81-2.46-2-6-3.55-10.39-.78-2.19-1.64-4.58-2.55-7.15a82.8,82.8,0,0,1-2.6-8.33,186.77,186.77,0,0,1-3.64-19.65c-1.25-9.14-2.06-17.76-2.56-25.17v-.1l.07-.08,4-3.84,0,.31L198.17,237l-.15-.11.11-.15,6.82-9.25,1.88-2.5c.2-.27.37-.48.5-.65a1,1,0,0,1,.18-.2,1.3,1.3,0,0,1-.14.24c-.12.17-.27.39-.45.67l-1.8,2.56-6.69,9.35,0-.26,3.81,2.84.19.15-.17.17c-1.26,1.22-2.57,2.51-4,3.87l.06-.18c.54,7.4,1.38,16,2.63,25.13a196.64,196.64,0,0,0,3.58,19.6q1.14,4.45,2.54,8.31c.9,2.57,1.73,5,2.5,7.16,1.5,4.4,2.65,8,3.4,10.46.37,1.24.65,2.21.83,2.87l.19.76A.74.74,0,0,1,214,318.06Z" style="fill:#263238"></path><polygon points="184.99 365.42 204.66 373.14 205.98 368.76 212.66 374.87 213.86 364.24 207.69 352.74 186.43 359.63 184.99 365.42" style="opacity:0.30000000000000004"></polygon><path d="M251.84,365.27l-8-4.85-7-6.35a17.69,17.69,0,0,0,5.45,3,4.52,4.52,0,0,0,5.15-1.92s-2.88-1.81-3.87-2.36-10.94-8-13.46-8.53-19.17-3.94-19.17-3.94l-.27.86-8.22,17.54,7.31,2a49.34,49.34,0,0,1,3.73,6.14c1.64,3.29,9.62,6.53,12.69,8.15s6.55-1.21,6.55-1.21c3.53.8,4.4-3,4.4-3,4.06-.55,4.4-5,4.4-5s7.37,2.85,9.63,3.25a1.39,1.39,0,0,0,1.68-.88A2.33,2.33,0,0,0,251.84,365.27Z" style="fill:#ffbf9d"></path><path d="M241.53,365.77a20.27,20.27,0,0,1-4.65-2.1,14.53,14.53,0,0,1-4.15-3c.09-.12,1.94,1.18,4.4,2.52A33.12,33.12,0,0,1,241.53,365.77Z" style="fill:#ff9a6c"></path><path d="M228.59,365.12a20.71,20.71,0,0,1,4.59,2.72A44.38,44.38,0,0,1,237.5,371a20.27,20.27,0,0,1-4.62-2.68A40.35,40.35,0,0,1,228.59,365.12Z" style="fill:#ff9a6c"></path><path d="M225.42,368.5c.09-.09,1.63,1.19,3.7,2.58a21,21,0,0,1,3.61,2.73,19,19,0,0,1-3.91-2.3C226.73,370.11,225.3,368.61,225.42,368.5Z" style="fill:#ff9a6c"></path><path d="M227.46,347.07a4.58,4.58,0,0,1,1.78.38,13.71,13.71,0,0,1,3.84,2.15,17.46,17.46,0,0,1,3.08,3.12,5.4,5.4,0,0,1,1,1.53c-.14.11-1.74-2.16-4.37-4.24A24.25,24.25,0,0,0,227.46,347.07Z" style="fill:#ff9a6c"></path><path d="M150.42,344.7a7.52,7.52,0,0,1-3.52-6.1,68.54,68.54,0,0,1,.6-10.39c1.41-11.71,20.58-79.7,20.58-79.7l19.27,53-6.62,23.07,33.73,16.15-9.39,26.51S160.25,350.82,150.42,344.7Z" style="fill:#407BFF"></path><path d="M294.68,240.05l30.95,58.85.84,1.21,33.76-17.23,11.11,22.49L325.92,333a11.34,11.34,0,0,1-15.22-3.42l-20.07-30-5.4-24.63Z" style="fill:#407BFF"></path><path d="M290.82,256.84a3.52,3.52,0,0,1,.06.74c0,.54.05,1.24.08,2.13,0,1.9.08,4.56.14,7.82.08,6.61.12,15.74,0,25.82s-.31,19.22-.52,25.83c-.12,3.26-.22,5.91-.29,7.82-.05.88-.09,1.59-.11,2.12a4.27,4.27,0,0,1-.08.74,3.48,3.48,0,0,1,0-.74c0-.54,0-1.25,0-2.13,0-1.9.08-4.56.13-7.82.12-6.61.27-15.74.37-25.82s.12-19.21.13-25.82c0-3.26,0-5.92,0-7.82,0-.89,0-1.59,0-2.13A5.23,5.23,0,0,1,290.82,256.84Z" style="fill:#263238"></path><path d="M175.55,263.23a2.5,2.5,0,0,1,.21.59c.14.45.31,1,.52,1.73.44,1.57,1.06,3.74,1.81,6.39,1.5,5.4,3.57,12.86,5.67,21.16s3.75,15.87,4.8,21.38c.52,2.75.92,5,1.15,6.54l.27,1.78a2.49,2.49,0,0,1,.06.63,3,3,0,0,1-.16-.61c-.1-.46-.22-1.05-.37-1.77-.32-1.6-.77-3.8-1.31-6.5-1.14-5.49-2.86-13-4.95-21.33s-4.1-15.76-5.52-21.19c-.68-2.66-1.24-4.84-1.65-6.43l-.42-1.75A2.62,2.62,0,0,1,175.55,263.23Z" style="fill:#263238"></path><path d="M161.59,350.14s.08,0,.22.06l.63.23,2.43.91,9.07,3.48L205.16,367l-.32.15,6.28-17.78c1.06-3,2.09-5.89,3.1-8.72l.13.32L181,324.85h0a19.34,19.34,0,0,0-13.7.58,25.5,25.5,0,0,0-3.38,1.78l-.83.55a1.26,1.26,0,0,1-.3.17l.27-.22.8-.59a23.86,23.86,0,0,1,3.36-1.88,19.4,19.4,0,0,1,13.9-.74h0l33.4,16,.21.1-.08.22c-1,2.83-2,5.76-3.08,8.72-2.21,6.23-4.35,12.23-6.31,17.78l-.09.24-.24-.09-31.16-12.34-9-3.62-2.4-1-.61-.27Z" style="fill:#263238"></path><path d="M326.7,299.51a7.91,7.91,0,0,1,.08,2.32,35.63,35.63,0,0,1-.78,5.52c-.45,2.14-.9,4-1.2,5.43a12.5,12.5,0,0,1-.57,2.24,9,9,0,0,1,.2-2.31c.22-1.41.62-3.34,1.06-5.46s.77-4.05.93-5.46A15.28,15.28,0,0,1,326.7,299.51Z" style="fill:#263238"></path><path d="M326.7,300.93a24.23,24.23,0,0,1-1.63,5.35,40.57,40.57,0,0,1-2.12,5.16,24.39,24.39,0,0,1,1.63-5.35A41.35,41.35,0,0,1,326.7,300.93Z" style="fill:#263238"></path><path d="M237.33,246.21a8.73,8.73,0,0,1-1-.86c-.64-.65-1.49-1.48-2.51-2.5l-8.49-8.68h.36a10.95,10.95,0,0,0-2.4,7.38l0,.59-.45-.37c-4.3-3.48-7.78-6.89-10.38-9.22-1.29-1.18-2.34-2.12-3.07-2.75a10.37,10.37,0,0,1-1.1-1,8.63,8.63,0,0,1,1.22.87c.77.6,1.85,1.49,3.18,2.64,2.66,2.26,6.2,5.64,10.47,9.08l-.42.22a10.81,10.81,0,0,1,.21-2.87,11,11,0,0,1,2.32-4.88l.19-.21.18.19,8.37,8.81,2.41,2.6A6.81,6.81,0,0,1,237.33,246.21Z" style="fill:#263238"></path><path d="M248.69,227.23a2.65,2.65,0,0,1,.05.8c0,.52,0,1.28-.11,2.23a45.92,45.92,0,0,1-1.26,7.66l-.15.63-.3-.58a18.8,18.8,0,0,0-3.29-4.54c-.38-.39-.77-.75-1.15-1.07l.43-.14a71.34,71.34,0,0,1-3.08,10.14c-.48,1.25-.91,2.24-1.22,2.91a4.76,4.76,0,0,1-.54,1,5.45,5.45,0,0,1,.36-1.09l1.08-3a89.79,89.79,0,0,0,2.89-10.14l.09-.42.33.28c.39.34.79.71,1.18,1.1a18.48,18.48,0,0,1,3.35,4.69l-.45.05a58,58,0,0,0,1.43-7.57C248.56,228.35,248.63,227.23,248.69,227.23Z" style="fill:#263238"></path><polygon points="279.49 360.66 282.51 370.05 299.63 368.47 294.29 359.49 279.49 360.66" style="fill:#407BFF"></polygon><path d="M279.49,360.66a6.71,6.71,0,0,1,1-.13l3-.3c2.59-.25,6.32-.6,10.76-1h.15l.07.12,5.36,9,.21.35-.41,0-.88.08-16.24,1.44-.16,0-.05-.16c-.92-2.93-1.63-5.32-2.12-7-.22-.76-.4-1.38-.55-1.87a5.37,5.37,0,0,1-.16-.62,5.51,5.51,0,0,1,.27.69l.66,1.89c.57,1.67,1.34,4,2.29,6.75l-.21-.14,16.22-1.56.88-.08-.2.39-5.31-9,.22.12c-4.33.32-8,.55-10.61.71l-3.07.18C279.91,360.66,279.51,360.67,279.49,360.66Z" style="fill:#263238"></path><rect x="268.85" y="286.17" width="18.38" height="5.93" style="fill:#407BFF"></rect><path d="M287.23,292.1a2.79,2.79,0,0,1,0-.44c0-.32,0-.71-.05-1.18,0-1.08,0-2.53-.09-4.31l.17.17c-4.38.05-11,.09-18.38.09.11-.12-.26.26.26-.26h0v3c0,1,0,2,0,2.9l-.25-.25c5.23,0,9.79.06,13.07.11l3.87.07c.91,0,1.42.05,1.44.07a10.64,10.64,0,0,1-1.33.06l-3.81.08c-3.26,0-7.9.1-13.24.11h-.25v-6.16h0c.52-.52.14-.15.26-.26,7.38,0,14,0,18.38.09h.17v.17c0,1.82-.07,3.3-.09,4.41A13,13,0,0,1,287.23,292.1Z" style="fill:#263238"></path><path d="M266,240.53l2.83,3.89s-.79,59-3.79,73.68Z" style="opacity:0.30000000000000004"></path></g><g id="freepik--character-1--inject-20"><path d="M116.41,275.22a27.47,27.47,0,0,0-25.06-27.58l-1.42-.13c-15.36-.45-24.33,12.34-24.36,27.71l-3.39,54-1.53,11L96,349.33l3-23.33s14.9-1,16.38-15.66C116,303.25,116.31,288.54,116.41,275.22Z" style="fill:#b56760"></path><path d="M99.07,326a35.76,35.76,0,0,1-18.76-7.33s3.35,11.3,18.13,11.27Z" style="fill:#8a4a43"></path><path d="M110.68,288.84a2.1,2.1,0,0,1-2.21,1.94,2,2,0,0,1-2-2.08,2.11,2.11,0,0,1,2.21-1.94A2,2,0,0,1,110.68,288.84Z" style="fill:#263238"></path><path d="M112.62,282.13c-.28.25-1.77-1.07-4-1.26s-4,.79-4.23.49c-.11-.13.2-.6,1-1.07a5.77,5.77,0,0,1,3.42-.73,5.53,5.53,0,0,1,3.17,1.35C112.57,281.5,112.76,282,112.62,282.13Z" style="fill:#263238"></path><path d="M89.83,287.82a2.09,2.09,0,0,1-2.21,1.94,2,2,0,0,1-2-2.08,2.11,2.11,0,0,1,2.21-1.94A2,2,0,0,1,89.83,287.82Z" style="fill:#263238"></path><path d="M90.39,280.59c-.28.25-1.77-1.07-4-1.26s-4,.79-4.24.49c-.11-.13.2-.6,1-1.06a5.78,5.78,0,0,1,3.42-.74,5.59,5.59,0,0,1,3.17,1.35C90.34,280,90.53,280.48,90.39,280.59Z" style="fill:#263238"></path><path d="M97.11,298.05a15.8,15.8,0,0,1,3.72-.33c.58,0,1.14-.08,1.27-.46a2.9,2.9,0,0,0-.23-1.75L100.55,291c-1.81-6.46-3.07-11.74-2.81-11.82s1.94,5.11,3.76,11.57c.43,1.59.85,3.11,1.24,4.56a3.36,3.36,0,0,1,.1,2.29,1.46,1.46,0,0,1-1,.76,3.85,3.85,0,0,1-1,.05A14.57,14.57,0,0,1,97.11,298.05Z" style="fill:#263238"></path><path d="M90.33,299c.37,0,.15,2.46,2.1,4.39S97,305.3,97,305.65c0,.15-.62.42-1.73.35a6.12,6.12,0,0,1-3.82-1.72,5.33,5.33,0,0,1-1.6-3.66C89.83,299.58,90.16,299,90.33,299Z" style="fill:#263238"></path><path d="M91.76,271.79c-.28.6-2.51.11-5.18.19s-4.89.62-5.19,0c-.13-.28.29-.82,1.21-1.34a9,9,0,0,1,7.89-.17C91.43,271,91.88,271.51,91.76,271.79Z" style="fill:#263238"></path><path d="M112.37,275.52c-.44.48-2-.19-3.82-.38s-3.48,0-3.8-.53c-.14-.27.16-.77.89-1.19a5.55,5.55,0,0,1,6.14.73C112.39,274.74,112.57,275.29,112.37,275.52Z" style="fill:#263238"></path><path d="M66.67,289.72a4,4,0,0,0-4-4.22c-2.76,0-6,1.31-6.27,7-.56,10.08,9.66,8.57,9.7,8.28S66.47,293.94,66.67,289.72Z" style="fill:#b56760"></path><path d="M64.15,296.85s-.18.11-.49.23a1.76,1.76,0,0,1-1.31-.05c-1-.45-1.84-2.19-1.79-4a5.94,5.94,0,0,1,.63-2.48,2,2,0,0,1,1.4-1.27.89.89,0,0,1,1,.54c.12.29,0,.48.09.5s.23-.15.17-.57a1.1,1.1,0,0,0-.36-.66,1.33,1.33,0,0,0-1-.31,2.49,2.49,0,0,0-1.92,1.46,6,6,0,0,0-.76,2.77c0,2,.88,4,2.31,4.5a1.9,1.9,0,0,0,1.62-.18C64.12,297.09,64.18,296.87,64.15,296.85Z" style="fill:#8a4a43"></path><path d="M60.37,278.34c.36,3-.71,7.64,1.94,7.41,5.24-.45,2.36,9.68,4.94,9.06s5.13-3.21,6.31-9.54c1.5-8-.8-14.38,3.87-23.1a12.37,12.37,0,0,1,11.22-4.67,12.57,12.57,0,0,1,9.78,7.4c.91-2.74,3-6.76,5.69-7.71a7.37,7.37,0,0,1,7.91,2,6,6,0,0,1-.2,7.87,2.87,2.87,0,0,0,3.35-.62,4.88,4.88,0,0,1-1.85,3.42,4.5,4.5,0,0,0,2.85-1.37l-1.32,3.37c4.23.81,9-2.63,10.82-6.1,2.69-5.26,2.22-11.07-.08-16.51s-7.28-9.81-13.12-10.71-11.16,1.08-14.28,6.09c-3.35-3.29-10.86-5.46-15.39-4.22a13.74,13.74,0,0,0-9.49,9.52c-2.46-1.54-5.77-1.19-8.28.26l-.62.38a12.29,12.29,0,0,0-5.33,10.6c0,1.66.34,3.43.45,4.78C59.9,269.92,60.37,278.34,60.37,278.34Z" style="fill:#263238"></path><path d="M115.88,266.25a1.69,1.69,0,0,0,.39-.22,6.36,6.36,0,0,0,1-.78,8.67,8.67,0,0,0,2.35-3.95,8.17,8.17,0,0,0-.95-6.67,8.81,8.81,0,0,0-7.11-4.09,10.06,10.06,0,0,0-4.28.92,13.56,13.56,0,0,0-3.39,2.23,15.86,15.86,0,0,0-4,5.52,15.25,15.25,0,0,0-1.22,4.43,9.68,9.68,0,0,0-.08,1.25,1.49,1.49,0,0,0,0,.44,18.68,18.68,0,0,1,1.57-6,15.82,15.82,0,0,1,4-5.34,11.26,11.26,0,0,1,7.39-3,8.44,8.44,0,0,1,6.77,3.87,7.87,7.87,0,0,1,1,6.37,8.79,8.79,0,0,1-2.16,3.91C116.38,265.9,115.86,266.21,115.88,266.25Z" style="fill:#455a64"></path><path d="M117.11,271a3,3,0,0,0,.38-.44c.23-.29.58-.73,1-1.3a32.65,32.65,0,0,0,3.23-5.15,16.56,16.56,0,0,0,1.32-4,11.77,11.77,0,0,0-.1-4.86,9.34,9.34,0,0,0-2.75-4.6,11.22,11.22,0,0,0-5.1-2.66,13.76,13.76,0,0,0-5.75,0,18.22,18.22,0,0,0-5,1.87,13.92,13.92,0,0,0-6.2,6.46,10,10,0,0,0-.67,6,8.25,8.25,0,0,0,.5,1.58,2.34,2.34,0,0,0,.28.51,13.43,13.43,0,0,1-.61-2.12,10.19,10.19,0,0,1,.79-5.85,13.68,13.68,0,0,1,6.11-6.23A15.26,15.26,0,0,1,115,248.42a10.9,10.9,0,0,1,4.91,2.54,8.92,8.92,0,0,1,2.64,4.38,11.48,11.48,0,0,1,.13,4.69,16.12,16.12,0,0,1-1.24,3.94,34.64,34.64,0,0,1-3.08,5.19c-.39.55-.7,1-.94,1.35A2.53,2.53,0,0,0,117.11,271Z" style="fill:#455a64"></path><path d="M64.91,272.49c.06-.05-.79-.89-1.77-2.52a14.78,14.78,0,0,1-.62-14.13c.83-1.71,1.61-2.61,1.54-2.66s-.23.19-.57.61a12.14,12.14,0,0,0-1.25,1.91,14.17,14.17,0,0,0,.64,14.44,12.94,12.94,0,0,0,1.4,1.8A2.8,2.8,0,0,0,64.91,272.49Z" style="fill:#455a64"></path><path d="M74,273.67s-.46-.3-1.16-1a7.29,7.29,0,0,1-2-3.42l-.26-1-.08,1.05c-.1,1.42-.22,3.05-.34,4.82l.35-.14a13.2,13.2,0,0,1-2.72-3.7,12.84,12.84,0,0,1-1.37-5.58,13.12,13.12,0,0,1,.78-4.66,17.93,17.93,0,0,1,2.07-3.88s-.09.07-.23.22a7.84,7.84,0,0,0-.56.68A12.27,12.27,0,0,0,66.89,260a12.93,12.93,0,0,0,.48,10.55,13.38,13.38,0,0,0,2.83,3.81l.33.3,0-.44c.1-1.77.19-3.41.26-4.83l-.33,0a7.07,7.07,0,0,0,2.21,3.47,6.23,6.23,0,0,0,.93.66C73.86,273.63,74,273.69,74,273.67Z" style="fill:#455a64"></path><path d="M80.13,253.23a9.71,9.71,0,0,1,2.76-2.49,8.51,8.51,0,0,1,3.84-1.08,9,9,0,0,1,4.7,1.21A10.31,10.31,0,0,1,95,254.22a12.5,12.5,0,0,1,1.61,3.7,24,24,0,0,1,.5,3.72,3.4,3.4,0,0,0,.09-1,12.44,12.44,0,0,0-.29-2.78A12.17,12.17,0,0,0,95.34,254a10.58,10.58,0,0,0-3.69-3.51,9.16,9.16,0,0,0-4.94-1.23,8.54,8.54,0,0,0-4,1.22,7.43,7.43,0,0,0-2.08,1.87,3.75,3.75,0,0,0-.41.65C80.15,253.14,80.12,253.22,80.13,253.23Z" style="fill:#455a64"></path><path d="M83.68,246a13.64,13.64,0,0,1,2.91-.62,10.1,10.1,0,0,1,6.65,2.07,12.52,12.52,0,0,1,4,5.8c.6,1.74.7,2.9.78,2.89a2.48,2.48,0,0,0,0-.82,11.63,11.63,0,0,0-.45-2.17,12.09,12.09,0,0,0-4-6.05,10,10,0,0,0-7-2,7.46,7.46,0,0,0-2.16.54A2,2,0,0,0,83.68,246Z" style="fill:#455a64"></path><path d="M59.11,329.55s-9.78,9-13.09,22.32c-4.23,16.95,11.27,98.79,11.27,98.79l81.79-.12-17.54-64.75S101.25,346.21,101,345.33s-1-9.34-1-9.34l-37.43-15.4Z" style="fill:#455a64"></path><path d="M235.33,417c-.78-1.72-6.4-5-6.4-5-.47-1.72-3.28-3.35-3.28-3.35a10.5,10.5,0,0,0-3.59-2.19c-2.2-.78-21.84,1.56-21.84,1.56l-14.67,1,.83,19.32c0,.47,13.77-5,13.77-5s5.79,1.4,10.95,2.34S226.24,423,226.24,423l3.82,3.7a11.67,11.67,0,0,1,1.18,5.21c0,1.56,2,3,3.23,1.89s.37-6.52.37-6.52A2.27,2.27,0,0,0,237,427C238,426.26,236.11,418.76,235.33,417Z" style="fill:#b56760"></path><path d="M226.48,417.69a3.52,3.52,0,0,1,2.22.15,8,8,0,0,1,4.16,3.35,15.31,15.31,0,0,1,1.9,5,8.89,8.89,0,0,1,.32,2.19,10.58,10.58,0,0,1-.67-2.1,18.64,18.64,0,0,0-2-4.81,8.33,8.33,0,0,0-3.85-3.29A12.42,12.42,0,0,0,226.48,417.69Z" style="fill:#8a4a43"></path><path d="M60.65,381.52S98.5,422,113.05,429.86c15.69,8.53,22.57,8.27,22.57,8.27L133.19,427Z" style="opacity:0.30000000000000004"></path><path d="M201.66,406.5l-63-7.54s-38.2-47-48-54.26-26.2-4.85-31.34,0a19.81,19.81,0,0,0-5.15,9.49,31.26,31.26,0,0,0,1.28,19.27l2.05,5.27c1.12.84,60.58,54.38,76,55.5S202.86,431,202.86,431Z" style="fill:#455a64"></path><path d="M101,345.33a11.46,11.46,0,0,1-1.71-.44c-1.09-.31-2.65-.8-4.57-1.46-3.84-1.3-9.06-3.31-14.79-5.62S69,333.4,65.21,331.93l-4.47-1.71a12.34,12.34,0,0,1-1.63-.67,9.22,9.22,0,0,1,1.7.48c1.08.34,2.63.87,4.53,1.56,3.81,1.37,9,3.43,14.74,5.74S91,341.69,94.8,343.08c1.9.71,3.44,1.25,4.51,1.62A10.44,10.44,0,0,1,101,345.33Z" style="fill:#263238"></path><path d="M84.37,340.88a19.86,19.86,0,0,1-1.94-.45,29.06,29.06,0,0,0-5.33-.78,27.12,27.12,0,0,0-7.93.7,25.24,25.24,0,0,0-4.43,1.56,23.67,23.67,0,0,0-4.28,2.66,18.84,18.84,0,0,0-6,7.54,26,26,0,0,0-1.94,7.71,49.88,49.88,0,0,0-.26,5.4v1.48a1.76,1.76,0,0,1,0,.52,2,2,0,0,1-.07-.52c0-.39-.06-.88-.11-1.47a41.86,41.86,0,0,1,.1-5.44A25.75,25.75,0,0,1,54,351.92a19,19,0,0,1,6.1-7.76,23.27,23.27,0,0,1,4.38-2.71,24,24,0,0,1,4.54-1.56,27.08,27.08,0,0,1,13.43.34c.62.16,1.09.34,1.41.45A2.73,2.73,0,0,1,84.37,340.88Z" style="fill:#263238"></path><path d="M90.62,344.7s.36.27,1,.82c.33.27.76.61,1.24,1l1.62,1.53c2.44,2.33,5.87,5.9,10.1,10.6,8.48,9.38,20.26,23.17,34.17,40.14l-.14-.07,63.07,7.82.21,0v.21c.38,7.76.78,15.9,1.19,24.19v.26l-.25,0-1.94.15c-11.17.86-22.09,1.6-32.63,2.2-5.28.29-10.46.56-15.54.74s-10.05.34-14.92.26c-1.21,0-2.42-.08-3.62-.12-.3,0-.6,0-.9-.05l-.9-.15a11.2,11.2,0,0,1-1.75-.44,38,38,0,0,1-6.42-2.87,127.59,127.59,0,0,1-11.35-7.11C105.8,419,99.44,414,93.69,409.48,82.21,400.32,73.2,392.57,67,387.18c-3.08-2.7-5.46-4.81-7.1-6.24-.79-.72-1.4-1.26-1.83-1.64l-.62-.57s.24.17.66.53l1.86,1.6L67.14,387c6.24,5.34,15.27,13.05,26.78,22.16,5.76,4.54,12.13,9.45,19.23,14.34a125.3,125.3,0,0,0,11.33,7.07,37.88,37.88,0,0,0,6.33,2.82c2.21.75,4.64.65,7.05.73,4.85.07,9.82-.09,14.89-.27s10.26-.47,15.53-.76c10.54-.61,21.45-1.35,32.62-2.21l1.94-.15-.24.27c-.4-8.29-.8-16.43-1.18-24.19l.23.24-63.06-7.9h-.09l-.05-.07c-13.87-17-25.6-30.83-34-40.25-4.2-4.72-7.6-8.32-10-10.67l-1.59-1.56-1.22-1.05Z" style="fill:#263238"></path><path d="M135.62,409.25a16.16,16.16,0,0,1,.9-5.25,15.81,15.81,0,0,1,2.15-4.87c.14.07-.82,2.24-1.65,5S135.78,409.27,135.62,409.25Z" style="fill:#263238"></path><path d="M38.37,351.83h0a6.92,6.92,0,0,0-6.92,6.93v92H45.29v-92A6.92,6.92,0,0,0,38.37,351.83Z" style="fill:#263238"></path></g><g id="freepik--Desk--inject-20"><polygon points="446.09 395.03 398.73 395.03 411.69 436.41 460.87 436.41 446.09 395.03" style="fill:#fff"></polygon><path d="M398.73,395c-.85.55-14,41.38-14,41.38h28.06Z" style="fill:#e0e0e0"></path><path d="M460.87,436.41l-.09-.19c-.06-.15-.13-.34-.23-.58-.2-.54-.48-1.3-.85-2.26-.73-2-1.79-4.9-3.12-8.53-2.65-7.34-6.37-17.67-10.72-29.74l.23.16-23.57,0-23.79,0L399,395,409,424.76c1.21,3.64,2.18,6.54,2.85,8.57.32,1,.56,1.74.74,2.28.07.25.13.44.18.6a1.47,1.47,0,0,1,.05.2s0-.06-.09-.19l-.22-.58c-.19-.54-.46-1.3-.81-2.26l-3-8.53c-2.52-7.34-6.08-17.66-10.23-29.74l-.11-.32h.34l23.79,0,23.57,0h.17l.06.16c4.28,12.1,7.94,22.44,10.55,29.8,1.27,3.65,2.28,6.55,3,8.57.33,1,.59,1.74.77,2.29l.19.6C460.86,436.34,460.88,436.41,460.87,436.41Z" style="fill:#263238"></path><path d="M422.76,436.41c-.14,0-3.4-9.18-7.3-20.6s-6.93-20.73-6.8-20.78,3.4,9.18,7.3,20.61S422.9,436.37,422.76,436.41Z" style="fill:#263238"></path><path d="M432.69,436.41c-.13,0-3.4-9.18-7.29-20.6s-6.94-20.73-6.81-20.78,3.41,9.18,7.3,20.61S432.83,436.37,432.69,436.41Z" style="fill:#263238"></path><path d="M442.63,436.41c-.14,0-3.41-9.18-7.3-20.6s-6.94-20.73-6.8-20.78,3.4,9.18,7.29,20.61S442.76,436.37,442.63,436.41Z" style="fill:#263238"></path><path d="M452.56,436.41c-.14,0-3.4-9.18-7.3-20.6s-6.94-20.73-6.8-20.78,3.4,9.18,7.3,20.61S452.69,436.37,452.56,436.41Z" style="fill:#263238"></path><path d="M408.68,399.2a18.31,18.31,0,0,1-6.15,0,18.31,18.31,0,0,1,6.15,0Z" style="fill:#263238"></path><path d="M418.3,399.2a18.31,18.31,0,0,1-6.15,0,18.31,18.31,0,0,1,6.15,0Z" style="fill:#263238"></path><path d="M427.83,399.2a18.31,18.31,0,0,1-6.15,0,18.31,18.31,0,0,1,6.15,0Z" style="fill:#263238"></path><path d="M445.6,399.2a10.57,10.57,0,0,1-4.66,0,10.57,10.57,0,0,1,4.66,0Z" style="fill:#263238"></path><path d="M438.05,399.2a18.31,18.31,0,0,1-6.15,0,18.31,18.31,0,0,1,6.15,0Z" style="fill:#263238"></path><path d="M448.1,402.16c0,.15-10.51.26-23.48.26s-23.47-.11-23.47-.26,10.51-.26,23.47-.26S448.1,402,448.1,402.16Z" style="fill:#263238"></path><path d="M450.13,407.74c0,.14-10.51.26-23.48.26s-23.47-.12-23.47-.26,10.51-.26,23.47-.26S450.13,407.6,450.13,407.74Z" style="fill:#263238"></path><path d="M451.94,414c0,.15-10.51.26-23.48.26S405,414.13,405,414s10.51-.26,23.47-.26S451.94,413.84,451.94,414Z" style="fill:#263238"></path><path d="M454.32,420.23c0,.14-10.51.26-23.48.26s-23.47-.12-23.47-.26,10.51-.26,23.47-.26S454.32,420.08,454.32,420.23Z" style="fill:#263238"></path><path d="M456.17,426.47c0,.14-10.51.26-23.48.26s-23.47-.12-23.47-.26,10.51-.26,23.47-.26S456.17,426.33,456.17,426.47Z" style="fill:#263238"></path><path d="M429.38,412.44a1.24,1.24,0,0,1,.42,0c.28,0,.69,0,1.22,0a11,11,0,0,1,4.42.89,5.88,5.88,0,0,1,2.38,2.09,4,4,0,0,1,.48,3.59,5,5,0,0,1-2.9,2.77,8.09,8.09,0,0,1-4.29.25,14.6,14.6,0,0,1-4.07-1.32,5.85,5.85,0,0,1-2.81-2.85,3.91,3.91,0,0,1,.11-3.62,4.36,4.36,0,0,1,2.59-1.83,6.11,6.11,0,0,1,2.59-.13,10.46,10.46,0,0,1,1.89.46c.51.16.89.31,1.15.41a1.49,1.49,0,0,1,.39.19,13.76,13.76,0,0,1-1.59-.41,8,8,0,0,0-4.33-.17,4.05,4.05,0,0,0-2.32,1.7,3.52,3.52,0,0,0,0,3.21,5.49,5.49,0,0,0,2.62,2.59,14.52,14.52,0,0,0,3.92,1.26,7.62,7.62,0,0,0,4-.22,4.53,4.53,0,0,0,2.64-2.46,3.57,3.57,0,0,0-.4-3.19,5.54,5.54,0,0,0-2.17-2,11.41,11.41,0,0,0-4.27-1A13,13,0,0,1,429.38,412.44Z" style="fill:#407BFF"></path><path d="M425.19,422.41a11.69,11.69,0,0,1,1.68-1.82l4.24-4.21,4.22-4.2a12.57,12.57,0,0,1,1.83-1.68,11.06,11.06,0,0,1-1.56,1.93c-1,1.14-2.47,2.68-4.13,4.32s-3.2,3.09-4.34,4.11A11.5,11.5,0,0,1,425.19,422.41Z" style="fill:#407BFF"></path><path d="M440.87,422.11a16.94,16.94,0,0,1-2.55-1.5c-1.53-1-3.64-2.37-5.95-3.93s-4.38-3-5.87-4.06a15.86,15.86,0,0,1-2.34-1.81,16.58,16.58,0,0,1,2.55,1.51c1.54,1,3.64,2.36,6,3.92s4.38,3,5.87,4.06A16.59,16.59,0,0,1,440.87,422.11Z" style="fill:#407BFF"></path><path d="M428.58,404.26a5.34,5.34,0,0,1-2.65.28,5.4,5.4,0,0,1-2.6-.55,9.55,9.55,0,0,1,2.63,0A9.7,9.7,0,0,1,428.58,404.26Z" style="fill:#407BFF"></path><path d="M428.52,405.65c0,.15-.8.32-1.82.39s-1.84,0-1.84-.14.8-.32,1.81-.38S428.51,405.51,428.52,405.65Z" style="fill:#407BFF"></path><path d="M438.29,404.55c0,.14-.83.33-1.89.33s-1.91-.18-1.9-.32.86-.19,1.9-.2S438.28,404.4,438.29,404.55Z" style="fill:#407BFF"></path><path d="M449.34,409.81c0,.15-.54.31-1.23.36s-1.26,0-1.27-.17.54-.3,1.23-.35S449.33,409.67,449.34,409.81Z" style="fill:#407BFF"></path><path d="M421.31,411a4.21,4.21,0,0,1-2.3.35,4.15,4.15,0,0,1-2.28-.47,7.26,7.26,0,0,1,2.3,0A7,7,0,0,1,421.31,411Z" style="fill:#407BFF"></path><path d="M413.19,417.75c0,.15-.82.3-1.85.35s-1.87,0-1.87-.16.82-.3,1.85-.36S413.19,417.61,413.19,417.75Z" style="fill:#407BFF"></path><path d="M428.28,430.51c0,.15-.8.4-1.82.57s-1.89.19-1.91,0,.79-.39,1.82-.56S428.25,430.37,428.28,430.51Z" style="fill:#407BFF"></path><path d="M436.64,424.57a5.57,5.57,0,0,1-2.63.32,5.68,5.68,0,0,1-2.62-.43,8.52,8.52,0,0,1,2.63-.09A9.28,9.28,0,0,1,436.64,424.57Z" style="fill:#407BFF"></path><path d="M447.08,423.49c0,.15-.87.32-2,.38s-2,0-2-.14a4.19,4.19,0,0,1,2-.38C446.18,423.29,447.08,423.35,447.08,423.49Z" style="fill:#407BFF"></path><path d="M398.73,395c.13.05-2.88,9.35-6.73,20.77s-7.09,20.66-7.23,20.61,2.88-9.34,6.73-20.77S398.59,395,398.73,395Z" style="fill:#263238"></path><path d="M459.05,432.47c0,.15-10.51.26-23.47.26s-23.48-.11-23.48-.26,10.51-.26,23.48-.26S459.05,432.33,459.05,432.47Z" style="fill:#263238"></path><path d="M287.9,371.68l-.48-.1a1.88,1.88,0,0,0-2.23,1.43l-13.11,59.63H207a1.88,1.88,0,0,0-1.88,1.88h0A1.88,1.88,0,0,0,207,436.4h68.25l14.11-62.47A1.88,1.88,0,0,0,287.9,371.68Z" style="fill:#e0e0e0"></path><path d="M287.9,371.68a1.64,1.64,0,0,1,1.06.6,1.91,1.91,0,0,1,.47,1.43c-.1.6-.27,1.26-.43,2-.68,3.09-1.68,7.58-2.94,13.29-2.56,11.46-6.22,27.81-10.62,47.42l0,.17h-.18l-68.37,0a2.14,2.14,0,0,1-.89-4,2.45,2.45,0,0,1,1.3-.26h31.48l33.33,0-.21.18c4.2-18.93,7.69-34.66,10.13-45.68,1.24-5.49,2.21-9.8,2.87-12.76a5.31,5.31,0,0,1,.62-1.9,1.88,1.88,0,0,1,1.24-.73,2,2,0,0,1,.88.07l.29.08-.3-.05a2.46,2.46,0,0,0-.86,0,1.9,1.9,0,0,0-1.17.73,5.16,5.16,0,0,0-.57,1.87c-.63,3-1.56,7.28-2.74,12.78-2.41,11-5.84,26.78-10,45.72l0,.18h-.18l-33.33,0H207.27a1.87,1.87,0,0,0-1.05.2,1.62,1.62,0,0,0,.67,3l68.34,0-.22.17c4.46-19.6,8.19-35.93,10.79-47.38,1.32-5.7,2.35-10.18,3.06-13.26.17-.76.36-1.44.46-2a1.86,1.86,0,0,0-.41-1.37A2,2,0,0,0,287.9,371.68Z" style="fill:#263238"></path><rect x="150.33" y="436.49" width="464.56" height="14.06" style="fill:#e0e0e0"></rect><path d="M614.89,450.54c0-.41,0-4.53-.06-14.05l.06.06-464.54.2h0l.26-.26v14.05l-.26-.26,464.56.26-464.56.26h-.26V436.22h.28l464.54.2H615v.07C614.91,446,614.89,450.13,614.89,450.54Z" style="fill:#263238"></path><rect x="465.71" y="427.71" width="96.17" height="8.63" style="fill:#fafafa"></rect><path d="M561.88,436.34s0-.2,0-.58l0-1.67c0-1.48,0-3.62-.06-6.38l.1.1c-16,.09-53.06.16-96.17.16h0l.26-.26v8.63l-.26-.26,68.22.11,20.45.08,5.55,0,1.45,0,.5,0-.47,0-1.41,0-5.49,0-20.39.08-68.41.11h-.26v-8.89l.26-.26h0c43.11,0,80.15.06,96.17.15H562v.11c0,2.78,0,5-.06,6.44,0,.7,0,1.25,0,1.64S561.88,436.34,561.88,436.34Z" style="fill:#263238"></path><rect x="456.88" y="422.9" width="95.06" height="4.81" style="fill:#fafafa"></rect><path d="M552,427.71a2.08,2.08,0,0,1,0-.31c0-.21,0-.5,0-.89,0-.81,0-2,0-3.61l.08.07c-12.07.11-50.1.19-95.06.19h0l.26-.26h0v4.8l-.26-.26,67.31.1,20.29.08,5.52,0,1.44,0c.33,0,.51,0,.51,0h-.47l-1.41,0-5.46,0-20.23.08-67.5.11h-.26v-5.06h0l.26-.26h0c45,0,83,.08,95.06.18H552v.08c0,1.63,0,2.84,0,3.66,0,.37,0,.66,0,.87S552,427.71,552,427.71Z" style="fill:#263238"></path><path d="M559.2,433.17c0,.14-20.83.26-46.51.26s-46.51-.12-46.51-.26,20.82-.26,46.51-.26S559.2,433,559.2,433.17Z" style="fill:#263238"></path><path d="M561.49,430.88c0,.14-20.83.26-46.51.26s-46.51-.12-46.51-.26,20.82-.26,46.51-.26S561.49,430.73,561.49,430.88Z" style="fill:#263238"></path><rect x="334.8" y="378.84" width="3.38" height="48.79" transform="translate(701.1 781.22) rotate(175.88)" style="fill:#e0e0e0"></rect><path d="M334.84,412.89l4.8-.35,1.13,15.72a2.4,2.4,0,0,1-2.22,2.57h0A2.41,2.41,0,0,1,336,428.6Z" style="fill:#455a64"></path><rect x="334.12" y="405.65" width="0.93" height="20.44" transform="translate(698.23 806.6) rotate(175.87)" style="fill:#455a64"></rect><path d="M339.64,412.54a29.74,29.74,0,0,1-4.83.7L335,413c.09,1.09.18,2.28.28,3.54.17,2.32.29,4.42.35,6a12.35,12.35,0,0,1,0,2.47,10.8,10.8,0,0,1-.37-2.44c-.15-1.52-.33-3.62-.5-5.95-.08-1.25-.16-2.44-.23-3.54l0-.23.23,0A33,33,0,0,1,339.64,412.54Z" style="fill:#263238"></path><rect x="340" y="380.15" width="3.38" height="38.09" style="fill:#e0e0e0"></rect><path d="M344,395h-4.81V379.27a2.4,2.4,0,0,1,2.4-2.4h0a2.41,2.41,0,0,1,2.41,2.4Z" style="fill:#455a64"></path><rect x="344.03" y="381.85" width="0.93" height="20.44" style="fill:#455a64"></rect><path d="M339.22,395a30.74,30.74,0,0,1,4.87-.35l-.23.24c0-1.1,0-2.29,0-3.55,0-2.33,0-4.44.08-6a12.3,12.3,0,0,1,.18-2.47,11.77,11.77,0,0,1,.19,2.47c0,1.52.07,3.63.07,6,0,1.26,0,2.45,0,3.55v.23h-.23A32.47,32.47,0,0,1,339.22,395Z" style="fill:#263238"></path><rect x="346.8" y="389.09" width="3.38" height="38.09" style="fill:#e0e0e0"></rect><path d="M350.83,404H346V388.21a2.39,2.39,0,0,1,2.4-2.4h0a2.4,2.4,0,0,1,2.41,2.4Z" style="fill:#455a64"></path><rect x="350.83" y="390.79" width="0.93" height="20.44" style="fill:#455a64"></rect><path d="M346,404a30.74,30.74,0,0,1,4.87-.35l-.23.24c0-1.1,0-2.3,0-3.55,0-2.33,0-4.44.08-6a12.3,12.3,0,0,1,.18-2.47,11,11,0,0,1,.19,2.47c.05,1.52.07,3.63.07,6,0,1.25,0,2.45,0,3.55v.23h-.23A31.8,31.8,0,0,1,346,404Z" style="fill:#263238"></path><rect x="353.22" y="378.75" width="3.38" height="38.09" style="fill:#e0e0e0"></rect><path d="M357.24,393.63h-4.81V377.88a2.41,2.41,0,0,1,2.41-2.41h0a2.41,2.41,0,0,1,2.4,2.41Z" style="fill:#455a64"></path><rect x="357.24" y="380.45" width="0.93" height="20.44" style="fill:#455a64"></rect><path d="M352.43,393.63a32,32,0,0,1,4.87-.34l-.23.23c0-1.1,0-2.29,0-3.55,0-2.33,0-4.43.07-6a11.08,11.08,0,0,1,.19-2.47,12.42,12.42,0,0,1,.18,2.47c.05,1.53.08,3.63.08,6,0,1.26,0,2.45,0,3.55v.24h-.23A30.9,30.9,0,0,1,352.43,393.63Z" style="fill:#263238"></path><polygon points="357.75 436.41 336.11 436.41 333.27 404.81 360.85 404.81 357.75 436.41" style="fill:#407BFF"></polygon></g></svg>